<?xml version="1.0" encoding="utf-8"?>
<!-- Generator: Adobe Illustrator 23.1.0, SVG Export Plug-In . SVG Version: 6.00 Build 0)  -->
<svg version="1.1" baseProfile="basic" id="Layer_1"
	 xmlns="http://www.w3.org/2000/svg" xmlns:xlink="http://www.w3.org/1999/xlink" x="0px" y="0px" viewBox="0 0 960 560"
	 xml:space="preserve">
<g>
	<image overflow="visible" width="17" height="20" xlink:href="CD51518C.png"  transform="matrix(1 0 0 1 1671 471)">
	</image>
	<image overflow="visible" width="8" height="49" xlink:href="CD51518D.png"  transform="matrix(1 0 0 1 1671 427)">
	</image>
</g>
<g>
	<g>
		<g>
			<image overflow="visible" width="49" height="132" xlink:href="CD51518B.png"  transform="matrix(1 0 0 1 1632 368)">
			</image>
		</g>
		<g>
			<image overflow="visible" width="55" height="39" xlink:href="CD515194.png"  transform="matrix(1 0 0 1 1640 326)">
			</image>
			<image overflow="visible" width="13" height="31" xlink:href="CD515197.png"  transform="matrix(1 0 0 1 1661 315)">
			</image>
			<g>
				<g>
					<image overflow="visible" width="30" height="21" xlink:href="CD515195.png"  transform="matrix(1 0 0 1 1652 353)">
					</image>
					<g>
						<path opacity="0" d="M1681.6,353.8c0,1.3-6.4,2.3-14.4,2.3c-7.9,0-14.4-0.9-14.4-2.2c0-1.3,6.5-2.6,14.4-2.6
							C1675.2,351.4,1681.6,352.5,1681.6,353.8z"/>
						<linearGradient id="SVGID_1_" gradientUnits="userSpaceOnUse" x1="1652.8545" y1="353.7381" x2="1681.6279" y2="353.7381">
							<stop  offset="6.060610e-02" style="stop-color:#060606"/>
							<stop  offset="0.4667" style="stop-color:#050505"/>
							<stop  offset="0.5096" style="stop-color:#060606"/>
							<stop  offset="0.903" style="stop-color:#0B0B0B"/>
						</linearGradient>
						<path opacity="6.250000e-02" fill="url(#SVGID_1_)" d="M1681.6,353.8c0,1.3-6.4,2.3-14.3,2.3c-7.9,0-14.4-0.9-14.4-2.2
							c0-1.3,6.5-2.5,14.4-2.5C1675.2,351.4,1681.6,352.5,1681.6,353.8z"/>
						<linearGradient id="SVGID_2_" gradientUnits="userSpaceOnUse" x1="1652.8545" y1="353.7262" x2="1681.6195" y2="353.7262">
							<stop  offset="6.060610e-02" style="stop-color:#0C0C0C"/>
							<stop  offset="0.4667" style="stop-color:#0A0A0A"/>
							<stop  offset="0.6393" style="stop-color:#111111"/>
							<stop  offset="0.903" style="stop-color:#161616"/>
						</linearGradient>
						<path opacity="0.125" fill="url(#SVGID_2_)" d="M1681.6,353.8c0,1.3-6.4,2.3-14.3,2.3c-7.9,0-14.4-0.9-14.4-2.2
							c0-1.3,6.5-2.5,14.4-2.5C1675.2,351.4,1681.6,352.5,1681.6,353.8z"/>
						<linearGradient id="SVGID_3_" gradientUnits="userSpaceOnUse" x1="1652.8545" y1="353.7144" x2="1681.6111" y2="353.7144">
							<stop  offset="6.060610e-02" style="stop-color:#121212"/>
							<stop  offset="0.4667" style="stop-color:#0F0F0F"/>
							<stop  offset="0.6942" style="stop-color:#1C1C1C"/>
							<stop  offset="0.903" style="stop-color:#212121"/>
						</linearGradient>
						<path opacity="0.1875" fill="url(#SVGID_3_)" d="M1681.6,353.8c0,1.3-6.4,2.2-14.3,2.2c-7.9,0-14.4-0.9-14.4-2.1
							c0-1.3,6.5-2.4,14.4-2.4C1675.2,351.4,1681.6,352.5,1681.6,353.8z"/>
						<linearGradient id="SVGID_4_" gradientUnits="userSpaceOnUse" x1="1652.8545" y1="353.7025" x2="1681.6027" y2="353.7025">
							<stop  offset="6.060610e-02" style="stop-color:#181818"/>
							<stop  offset="0.4667" style="stop-color:#141414"/>
							<stop  offset="0.5157" style="stop-color:#191919"/>
							<stop  offset="0.7261" style="stop-color:#272727"/>
							<stop  offset="0.903" style="stop-color:#2C2C2C"/>
						</linearGradient>
						<path opacity="0.25" fill="url(#SVGID_4_)" d="M1681.6,353.8c0,1.3-6.4,2.2-14.3,2.2c-7.9,0-14.4-0.9-14.4-2.1
							c0-1.2,6.5-2.4,14.4-2.4C1675.2,351.4,1681.6,352.5,1681.6,353.8z"/>
						<linearGradient id="SVGID_5_" gradientUnits="userSpaceOnUse" x1="1652.8545" y1="353.6906" x2="1681.5942" y2="353.6906">
							<stop  offset="6.060610e-02" style="stop-color:#1E1E1E"/>
							<stop  offset="0.4667" style="stop-color:#191919"/>
							<stop  offset="0.5625" style="stop-color:#242424"/>
							<stop  offset="0.7475" style="stop-color:#323232"/>
							<stop  offset="0.903" style="stop-color:#373737"/>
						</linearGradient>
						<path opacity="0.3125" fill="url(#SVGID_5_)" d="M1681.6,353.7c0,1.2-6.4,2.2-14.3,2.2c-7.9,0-14.4-0.9-14.4-2.1
							c0-1.2,6.5-2.3,14.4-2.3C1675.2,351.5,1681.6,352.5,1681.6,353.7z"/>
						<linearGradient id="SVGID_6_" gradientUnits="userSpaceOnUse" x1="1652.8545" y1="353.6787" x2="1681.5858" y2="353.6787">
							<stop  offset="6.060610e-02" style="stop-color:#242424"/>
							<stop  offset="0.4667" style="stop-color:#1E1E1E"/>
							<stop  offset="0.5965" style="stop-color:#2F2F2F"/>
							<stop  offset="0.763" style="stop-color:#3D3D3D"/>
							<stop  offset="0.903" style="stop-color:#424242"/>
						</linearGradient>
						<path opacity="0.375" fill="url(#SVGID_6_)" d="M1681.6,353.7c0,1.2-6.4,2.2-14.3,2.2c-7.9,0-14.4-0.9-14.4-2.1
							c0-1.2,6.5-2.3,14.4-2.3C1675.2,351.5,1681.6,352.5,1681.6,353.7z"/>
						<linearGradient id="SVGID_7_" gradientUnits="userSpaceOnUse" x1="1652.8545" y1="353.6669" x2="1681.5774" y2="353.6669">
							<stop  offset="6.060610e-02" style="stop-color:#2A2A2A"/>
							<stop  offset="0.4667" style="stop-color:#242424"/>
							<stop  offset="0.6222" style="stop-color:#3A3A3A"/>
							<stop  offset="0.7749" style="stop-color:#484848"/>
							<stop  offset="0.903" style="stop-color:#4D4D4D"/>
						</linearGradient>
						<path opacity="0.4375" fill="url(#SVGID_7_)" d="M1681.6,353.7c0,1.2-6.4,2.1-14.3,2.1c-7.9,0-14.4-0.9-14.4-2.1
							c0-1.2,6.5-2.2,14.4-2.2C1675.2,351.5,1681.6,352.5,1681.6,353.7z"/>
						<linearGradient id="SVGID_8_" gradientUnits="userSpaceOnUse" x1="1652.8545" y1="353.655" x2="1681.569" y2="353.655">
							<stop  offset="6.060610e-02" style="stop-color:#303030"/>
							<stop  offset="0.4667" style="stop-color:#292929"/>
							<stop  offset="0.4907" style="stop-color:#2D2D2D"/>
							<stop  offset="0.6431" style="stop-color:#454545"/>
							<stop  offset="0.7844" style="stop-color:#535353"/>
							<stop  offset="0.903" style="stop-color:#585858"/>
						</linearGradient>
						<path opacity="0.5" fill="url(#SVGID_8_)" d="M1681.6,353.7c0,1.2-6.4,2.1-14.3,2.1c-7.9,0-14.4-0.9-14.4-2.1
							c0-1.2,6.5-2.2,14.4-2.2C1675.2,351.5,1681.6,352.5,1681.6,353.7z"/>
						<linearGradient id="SVGID_9_" gradientUnits="userSpaceOnUse" x1="1652.8545" y1="353.6432" x2="1681.5605" y2="353.6432">
							<stop  offset="6.060610e-02" style="stop-color:#363636"/>
							<stop  offset="0.4667" style="stop-color:#2E2E2E"/>
							<stop  offset="0.5178" style="stop-color:#383838"/>
							<stop  offset="0.6601" style="stop-color:#505050"/>
							<stop  offset="0.7922" style="stop-color:#5F5F5F"/>
							<stop  offset="0.903" style="stop-color:#646464"/>
						</linearGradient>
						<path opacity="0.5625" fill="url(#SVGID_9_)" d="M1681.6,353.7c0,1.2-6.4,2.1-14.3,2.1c-7.9,0-14.4-0.9-14.4-2
							c0-1.2,6.5-2.1,14.4-2.1C1675.1,351.6,1681.6,352.5,1681.6,353.7z"/>
						<linearGradient id="SVGID_10_" gradientUnits="userSpaceOnUse" x1="1652.8545" y1="353.6313" x2="1681.5522" y2="353.6313">
							<stop  offset="6.060610e-02" style="stop-color:#3D3D3D"/>
							<stop  offset="0.4667" style="stop-color:#333333"/>
							<stop  offset="0.5405" style="stop-color:#434343"/>
							<stop  offset="0.6744" style="stop-color:#5B5B5B"/>
							<stop  offset="0.7987" style="stop-color:#6A6A6A"/>
							<stop  offset="0.903" style="stop-color:#6F6F6F"/>
						</linearGradient>
						<path opacity="0.625" fill="url(#SVGID_10_)" d="M1681.6,353.6c0,1.2-6.4,2-14.3,2c-7.9,0-14.4-0.9-14.4-2
							c0-1.1,6.5-2.1,14.4-2.1C1675.1,351.6,1681.6,352.5,1681.6,353.6z"/>
						<linearGradient id="SVGID_11_" gradientUnits="userSpaceOnUse" x1="1652.8545" y1="353.6194" x2="1681.5438" y2="353.6194">
							<stop  offset="6.060610e-02" style="stop-color:#434343"/>
							<stop  offset="0.4667" style="stop-color:#383838"/>
							<stop  offset="0.5599" style="stop-color:#4E4E4E"/>
							<stop  offset="0.6866" style="stop-color:#666666"/>
							<stop  offset="0.8043" style="stop-color:#757575"/>
							<stop  offset="0.903" style="stop-color:#7A7A7A"/>
						</linearGradient>
						<path opacity="0.6875" fill="url(#SVGID_11_)" d="M1681.5,353.6c0,1.1-6.4,2-14.3,2c-7.9,0-14.4-0.9-14.4-2
							c0-1.1,6.5-2,14.4-2C1675.1,351.6,1681.5,352.5,1681.5,353.6z"/>
						<linearGradient id="SVGID_12_" gradientUnits="userSpaceOnUse" x1="1652.8545" y1="353.6075" x2="1681.5354" y2="353.6075">
							<stop  offset="6.060610e-02" style="stop-color:#494949"/>
							<stop  offset="0.4667" style="stop-color:#3D3D3D"/>
							<stop  offset="0.5766" style="stop-color:#595959"/>
							<stop  offset="0.6972" style="stop-color:#717171"/>
							<stop  offset="0.8091" style="stop-color:#808080"/>
							<stop  offset="0.903" style="stop-color:#858585"/>
						</linearGradient>
						<path opacity="0.75" fill="url(#SVGID_12_)" d="M1681.5,353.6c0,1.1-6.4,2-14.3,2c-7.9,0-14.4-0.9-14.4-2c0-1.1,6.5-2,14.4-2
							C1675.1,351.6,1681.5,352.5,1681.5,353.6z"/>
						<linearGradient id="SVGID_13_" gradientUnits="userSpaceOnUse" x1="1652.8545" y1="353.5957" x2="1681.527" y2="353.5957">
							<stop  offset="6.060610e-02" style="stop-color:#4F4F4F"/>
							<stop  offset="0.4667" style="stop-color:#424242"/>
							<stop  offset="0.4698" style="stop-color:#434343"/>
							<stop  offset="0.5909" style="stop-color:#646464"/>
							<stop  offset="0.7065" style="stop-color:#7C7C7C"/>
							<stop  offset="0.8134" style="stop-color:#8B8B8B"/>
							<stop  offset="0.903" style="stop-color:#909090"/>
						</linearGradient>
						<path opacity="0.8125" fill="url(#SVGID_13_)" d="M1681.5,353.6c0,1.1-6.4,2-14.3,2c-7.9,0-14.3-0.9-14.3-2
							c0-1.1,6.4-2,14.3-2C1675.1,351.6,1681.5,352.5,1681.5,353.6z"/>
						<linearGradient id="SVGID_14_" gradientUnits="userSpaceOnUse" x1="1652.8545" y1="353.5838" x2="1681.5186" y2="353.5838">
							<stop  offset="6.060610e-02" style="stop-color:#555555"/>
							<stop  offset="0.4667" style="stop-color:#474747"/>
							<stop  offset="0.4879" style="stop-color:#4E4E4E"/>
							<stop  offset="0.6039" style="stop-color:#6F6F6F"/>
							<stop  offset="0.7147" style="stop-color:#878787"/>
							<stop  offset="0.8171" style="stop-color:#969696"/>
							<stop  offset="0.903" style="stop-color:#9B9B9B"/>
						</linearGradient>
						<path opacity="0.875" fill="url(#SVGID_14_)" d="M1681.5,353.6c0,1.1-6.4,1.9-14.3,1.9c-7.9,0-14.3-0.9-14.3-2
							c0-1.1,6.4-1.9,14.3-1.9C1675.1,351.7,1681.5,352.5,1681.5,353.6z"/>
						<linearGradient id="SVGID_15_" gradientUnits="userSpaceOnUse" x1="1652.8545" y1="353.5719" x2="1681.5101" y2="353.5719">
							<stop  offset="6.060610e-02" style="stop-color:#5B5B5B"/>
							<stop  offset="0.4667" style="stop-color:#4C4C4C"/>
							<stop  offset="0.5041" style="stop-color:#595959"/>
							<stop  offset="0.6156" style="stop-color:#7A7A7A"/>
							<stop  offset="0.7221" style="stop-color:#929292"/>
							<stop  offset="0.8205" style="stop-color:#A1A1A1"/>
							<stop  offset="0.903" style="stop-color:#A6A6A6"/>
						</linearGradient>
						<path opacity="0.9375" fill="url(#SVGID_15_)" d="M1681.5,353.6c0,1.1-6.4,1.9-14.3,1.9c-7.9,0-14.3-0.9-14.3-1.9
							c0-1.1,6.4-1.9,14.3-1.9C1675.1,351.7,1681.5,352.5,1681.5,353.6z"/>
						<linearGradient id="SVGID_16_" gradientUnits="userSpaceOnUse" x1="1652.8545" y1="353.5601" x2="1681.5017" y2="353.5601">
							<stop  offset="6.060610e-02" style="stop-color:#616161"/>
							<stop  offset="0.4667" style="stop-color:#515151"/>
							<stop  offset="0.5187" style="stop-color:#646464"/>
							<stop  offset="0.6261" style="stop-color:#858585"/>
							<stop  offset="0.7287" style="stop-color:#9D9D9D"/>
							<stop  offset="0.8235" style="stop-color:#ACACAC"/>
							<stop  offset="0.903" style="stop-color:#B1B1B1"/>
						</linearGradient>
						<path fill="url(#SVGID_16_)" d="M1681.5,353.5c0,1.1-6.4,1.9-14.3,1.9c-7.9,0-14.3-0.9-14.3-1.9c0-1,6.4-1.8,14.3-1.8
							C1675.1,351.7,1681.5,352.5,1681.5,353.5z"/>
					</g>
				</g>
				<image overflow="visible" width="19" height="17" xlink:href="CD51519B.png"  transform="matrix(1 0 0 1 1658 345)">
				</image>
			</g>
		</g>
	</g>
	<g>
		<g>
			<linearGradient id="SVGID_17_" gradientUnits="userSpaceOnUse" x1="1649.776" y1="226.7666" x2="1692.1558" y2="380.5059">
				<stop  offset="0" style="stop-color:#B9B9B9"/>
				<stop  offset="3.263513e-03" style="stop-color:#B9B9B9"/>
				<stop  offset="0.3124" style="stop-color:#E4E4E4"/>
				<stop  offset="0.47" style="stop-color:#F5F5F5"/>
				<stop  offset="0.6703" style="stop-color:#CACACA"/>
				<stop  offset="0.8557" style="stop-color:#A6A6A6"/>
			</linearGradient>
			<path fill="url(#SVGID_17_)" d="M1710.2,314.2c0,6.6-6.7,10.6-13.3,10.6h-62.5c-6.6,0-10.7-4-10.7-10.6v-50.5
				c0-6.6,5.4-11.9,12-11.9h62.5c6.6,0,12,5.3,12,11.9V314.2z"/>
			<linearGradient id="SVGID_18_" gradientUnits="userSpaceOnUse" x1="1713.9268" y1="249.1553" x2="1601.3107" y2="343.1141">
				<stop  offset="0" style="stop-color:#FFFFFF"/>
				<stop  offset="0.1788" style="stop-color:#FBFBFB"/>
				<stop  offset="0.3715" style="stop-color:#EEEEEE"/>
				<stop  offset="0.5706" style="stop-color:#D8D8D8"/>
				<stop  offset="0.773" style="stop-color:#BABABA"/>
				<stop  offset="0.8866" style="stop-color:#A6A6A6"/>
			</linearGradient>
			<path opacity="0.75" fill="url(#SVGID_18_)" d="M1698.2,251.4h-62.5c-6.6,0-12,5.4-12,12v50.8c0,6.6,4.1,10.7,10.7,10.7h63.6
				c6.6,0,12.2-4.1,12.2-10.7v-50.8C1710.2,265.4,1704.8,251.4,1698.2,251.4z"/>
		</g>
		<g>
			<polygon fill="#8F8F8F" points="1700.4,253.9 1636.3,253.9 1638,253.2 1698.2,253.2 			"/>
			<image overflow="visible" width="250" height="807" xlink:href="CD51519C.png"  transform="matrix(1 0 0 1 1536 -531)">
			</image>
		</g>
		<g>
			<linearGradient id="SVGID_19_" gradientUnits="userSpaceOnUse" x1="1638.3477" y1="235.0341" x2="1698.0251" y2="346.4801">
				<stop  offset="0" style="stop-color:#080808"/>
				<stop  offset="3.521707e-02" style="stop-color:#1E1E1E"/>
				<stop  offset="0.1972" style="stop-color:#7D7D7D"/>
				<stop  offset="0.3285" style="stop-color:#C3C3C3"/>
				<stop  offset="0.4224" style="stop-color:#EEEEEE"/>
				<stop  offset="0.47" style="stop-color:#FFFFFF"/>
				<stop  offset="0.5018" style="stop-color:#F6F6F6"/>
				<stop  offset="0.5534" style="stop-color:#DEDEDE"/>
				<stop  offset="0.6186" style="stop-color:#B6B6B6"/>
				<stop  offset="0.6947" style="stop-color:#808080"/>
				<stop  offset="0.7789" style="stop-color:#3B3B3B"/>
				<stop  offset="0.8355" style="stop-color:#080808"/>
			</linearGradient>
			<path fill="url(#SVGID_19_)" d="M1707.9,313.1c0.1,7.2-5.1,10.4-11.3,10.4h-58.5c-6.3,0-11.3-4.7-11.3-10.4v-48
				c0-5.7,5.1-10.4,11.3-10.4h58.5c6.3,0,11.3,4.7,11.3,10.4V313.1z"/>
			<g>
				<linearGradient id="SVGID_20_" gradientUnits="userSpaceOnUse" x1="1625.9249" y1="145.5399" x2="1705.8074" y2="428.9481">
					<stop  offset="0" style="stop-color:#AA9FAF"/>
					<stop  offset="9.987734e-02" style="stop-color:#C2BAC5"/>
					<stop  offset="0.2599" style="stop-color:#E3DFE5"/>
					<stop  offset="0.389" style="stop-color:#F8F7F8"/>
					<stop  offset="0.47" style="stop-color:#FFFFFF"/>
					<stop  offset="0.5524" style="stop-color:#F8F8F9"/>
					<stop  offset="0.6759" style="stop-color:#E6E3E7"/>
					<stop  offset="0.8247" style="stop-color:#C8C2C9"/>
					<stop  offset="0.8355" style="stop-color:#C6BFC7"/>
				</linearGradient>
				<path opacity="0" fill="url(#SVGID_20_)" d="M1707.3,313c0,6.3-4.6,11.3-10.9,11.3h-58.9c-6.3,0-11.8-3.4-11.4-11.3v-46.3
					c0-6.3,5.1-11.3,11.4-11.3h58.9c6.3,0,10.9,5.1,10.9,11.3V313z"/>
				<linearGradient id="SVGID_21_" gradientUnits="userSpaceOnUse" x1="1626.0447" y1="145.7955" x2="1705.7565" y2="428.5982">
					<stop  offset="0" style="stop-color:#AA9FAF"/>
					<stop  offset="9.987734e-02" style="stop-color:#C2BAC5"/>
					<stop  offset="0.2599" style="stop-color:#E3DFE5"/>
					<stop  offset="0.389" style="stop-color:#F8F7F8"/>
					<stop  offset="0.47" style="stop-color:#FFFFFF"/>
					<stop  offset="0.5524" style="stop-color:#F8F8F9"/>
					<stop  offset="0.6759" style="stop-color:#E6E3E7"/>
					<stop  offset="0.8247" style="stop-color:#C8C2C9"/>
					<stop  offset="0.8355" style="stop-color:#C6BFC7"/>
				</linearGradient>
				<path opacity="0.1111" fill="url(#SVGID_21_)" d="M1707.3,312.9c0,6.3-4.7,11.3-11,11.3h-58.8c-6.3,0-11.7-3.6-11.4-11.3v-46.1
					c0-6.2,5.1-11.4,11.4-11.4h58.8c6.3,0,10.9,5.1,10.9,11.4V312.9z"/>
				<linearGradient id="SVGID_22_" gradientUnits="userSpaceOnUse" x1="1626.1643" y1="146.0507" x2="1705.7056" y2="428.2485">
					<stop  offset="0" style="stop-color:#AA9FAF"/>
					<stop  offset="9.987734e-02" style="stop-color:#C2BAC5"/>
					<stop  offset="0.2599" style="stop-color:#E3DFE5"/>
					<stop  offset="0.389" style="stop-color:#F8F7F8"/>
					<stop  offset="0.47" style="stop-color:#FFFFFF"/>
					<stop  offset="0.5524" style="stop-color:#F8F8F9"/>
					<stop  offset="0.6759" style="stop-color:#E6E3E7"/>
					<stop  offset="0.8247" style="stop-color:#C8C2C9"/>
					<stop  offset="0.8355" style="stop-color:#C6BFC7"/>
				</linearGradient>
				<path opacity="0.2222" fill="url(#SVGID_22_)" d="M1707.2,312.8c0,6.2-4.7,11.3-11,11.3h-58.6c-6.3,0-11.6-3.8-11.4-11.3v-45.9
					c0-6.2,5.1-11.5,11.4-11.5h58.6c6.3,0,10.9,5.1,10.9,11.5V312.8z"/>
				<linearGradient id="SVGID_23_" gradientUnits="userSpaceOnUse" x1="1626.2836" y1="146.3054" x2="1705.6545" y2="427.8991">
					<stop  offset="0" style="stop-color:#AA9FAF"/>
					<stop  offset="9.987734e-02" style="stop-color:#C2BAC5"/>
					<stop  offset="0.2599" style="stop-color:#E3DFE5"/>
					<stop  offset="0.389" style="stop-color:#F8F7F8"/>
					<stop  offset="0.47" style="stop-color:#FFFFFF"/>
					<stop  offset="0.5524" style="stop-color:#F8F8F9"/>
					<stop  offset="0.6759" style="stop-color:#E6E3E7"/>
					<stop  offset="0.8247" style="stop-color:#C8C2C9"/>
					<stop  offset="0.8355" style="stop-color:#C6BFC7"/>
				</linearGradient>
				<path opacity="0.3333" fill="url(#SVGID_23_)" d="M1707.2,312.7c0,6.2-4.7,11.3-11,11.3h-58.4c-6.3,0-11.6-4-11.3-11.3v-45.8
					c0-6.2,5.2-11.6,11.4-11.6h58.4c6.3,0,10.9,5.1,10.9,11.6V312.7z"/>
				<linearGradient id="SVGID_24_" gradientUnits="userSpaceOnUse" x1="1626.4027" y1="146.5597" x2="1705.6035" y2="427.55">
					<stop  offset="0" style="stop-color:#AA9FAF"/>
					<stop  offset="9.987734e-02" style="stop-color:#C2BAC5"/>
					<stop  offset="0.2599" style="stop-color:#E3DFE5"/>
					<stop  offset="0.389" style="stop-color:#F8F7F8"/>
					<stop  offset="0.47" style="stop-color:#FFFFFF"/>
					<stop  offset="0.5524" style="stop-color:#F8F8F9"/>
					<stop  offset="0.6759" style="stop-color:#E6E3E7"/>
					<stop  offset="0.8247" style="stop-color:#C8C2C9"/>
					<stop  offset="0.8355" style="stop-color:#C6BFC7"/>
				</linearGradient>
				<path opacity="0.4444" fill="url(#SVGID_24_)" d="M1707.1,312.6c0,6.2-4.8,11.2-11,11.2h-58.3c-6.2,0-11.5-4.1-11.3-11.2V267
					c0-6.2,5.2-11.6,11.4-11.6h58.3c6.2,0,10.9,5.1,10.9,11.6V312.6z"/>
				<linearGradient id="SVGID_25_" gradientUnits="userSpaceOnUse" x1="1626.5215" y1="146.8136" x2="1705.5525" y2="427.2012">
					<stop  offset="0" style="stop-color:#AA9FAF"/>
					<stop  offset="9.987734e-02" style="stop-color:#C2BAC5"/>
					<stop  offset="0.2599" style="stop-color:#E3DFE5"/>
					<stop  offset="0.389" style="stop-color:#F8F7F8"/>
					<stop  offset="0.47" style="stop-color:#FFFFFF"/>
					<stop  offset="0.5524" style="stop-color:#F8F8F9"/>
					<stop  offset="0.6759" style="stop-color:#E6E3E7"/>
					<stop  offset="0.8247" style="stop-color:#C8C2C9"/>
					<stop  offset="0.8355" style="stop-color:#C6BFC7"/>
				</linearGradient>
				<path opacity="0.5556" fill="url(#SVGID_25_)" d="M1707.1,312.5c0,6.2-4.8,11.2-11.1,11.2h-58.1c-6.2,0-11.4-4.3-11.3-11.2
					v-45.4c0-6.2,5.2-11.7,11.4-11.7h58.1c6.2,0,10.9,5.1,10.9,11.7V312.5z"/>
				<linearGradient id="SVGID_26_" gradientUnits="userSpaceOnUse" x1="1626.6401" y1="147.0672" x2="1705.5015" y2="426.8526">
					<stop  offset="0" style="stop-color:#AA9FAF"/>
					<stop  offset="9.987734e-02" style="stop-color:#C2BAC5"/>
					<stop  offset="0.2599" style="stop-color:#E3DFE5"/>
					<stop  offset="0.389" style="stop-color:#F8F7F8"/>
					<stop  offset="0.47" style="stop-color:#FFFFFF"/>
					<stop  offset="0.5524" style="stop-color:#F8F8F9"/>
					<stop  offset="0.6759" style="stop-color:#E6E3E7"/>
					<stop  offset="0.8247" style="stop-color:#C8C2C9"/>
					<stop  offset="0.8355" style="stop-color:#C6BFC7"/>
				</linearGradient>
				<path opacity="0.6667" fill="url(#SVGID_26_)" d="M1707,312.4c0,6.2-4.9,11.2-11.1,11.2h-58c-6.2,0-11.4-4.5-11.3-11.2v-45.2
					c0-6.2,5.2-11.8,11.4-11.8h58c6.2,0,10.9,5.1,10.9,11.8V312.4z"/>
				<linearGradient id="SVGID_27_" gradientUnits="userSpaceOnUse" x1="1626.7585" y1="147.3204" x2="1705.4502" y2="426.5043">
					<stop  offset="0" style="stop-color:#AA9FAF"/>
					<stop  offset="9.987734e-02" style="stop-color:#C2BAC5"/>
					<stop  offset="0.2599" style="stop-color:#E3DFE5"/>
					<stop  offset="0.389" style="stop-color:#F8F7F8"/>
					<stop  offset="0.47" style="stop-color:#FFFFFF"/>
					<stop  offset="0.5524" style="stop-color:#F8F8F9"/>
					<stop  offset="0.6759" style="stop-color:#E6E3E7"/>
					<stop  offset="0.8247" style="stop-color:#C8C2C9"/>
					<stop  offset="0.8355" style="stop-color:#C6BFC7"/>
				</linearGradient>
				<path opacity="0.7778" fill="url(#SVGID_27_)" d="M1707,312.4c0,6.2-4.9,11.2-11.1,11.2H1638c-6.2,0-11.3-4.6-11.2-11.2v-45.1
					c0-6.2,5.2-11.9,11.4-11.9h57.8c6.2,0,10.9,5.1,10.9,11.9V312.4z"/>
				<linearGradient id="SVGID_28_" gradientUnits="userSpaceOnUse" x1="1626.8766" y1="147.5732" x2="1705.3989" y2="426.1563">
					<stop  offset="0" style="stop-color:#AA9FAF"/>
					<stop  offset="9.987734e-02" style="stop-color:#C2BAC5"/>
					<stop  offset="0.2599" style="stop-color:#E3DFE5"/>
					<stop  offset="0.389" style="stop-color:#F8F7F8"/>
					<stop  offset="0.47" style="stop-color:#FFFFFF"/>
					<stop  offset="0.5524" style="stop-color:#F8F8F9"/>
					<stop  offset="0.6759" style="stop-color:#E6E3E7"/>
					<stop  offset="0.8247" style="stop-color:#C8C2C9"/>
					<stop  offset="0.8355" style="stop-color:#C6BFC7"/>
				</linearGradient>
				<path opacity="0.8889" fill="url(#SVGID_28_)" d="M1706.9,312.3c0,6.1-5,11.1-11.1,11.1h-57.7c-6.2,0-11.2-4.8-11.2-11.1v-44.9
					c0-6.1,5.3-12,11.4-12h57.7c6.2,0,10.9,5.1,10.9,12V312.3z"/>
				<linearGradient id="SVGID_29_" gradientUnits="userSpaceOnUse" x1="1626.9944" y1="147.8257" x2="1705.3475" y2="425.8084">
					<stop  offset="0" style="stop-color:#AA9FAF"/>
					<stop  offset="9.987734e-02" style="stop-color:#C2BAC5"/>
					<stop  offset="0.2599" style="stop-color:#E3DFE5"/>
					<stop  offset="0.389" style="stop-color:#F8F7F8"/>
					<stop  offset="0.47" style="stop-color:#FFFFFF"/>
					<stop  offset="0.5524" style="stop-color:#F8F8F9"/>
					<stop  offset="0.6759" style="stop-color:#E6E3E7"/>
					<stop  offset="0.8247" style="stop-color:#C8C2C9"/>
					<stop  offset="0.8355" style="stop-color:#C6BFC7"/>
				</linearGradient>
				<path fill="url(#SVGID_29_)" d="M1706.9,312.2c0,6.1-5,11.1-11.2,11.1h-57.5c-6.2,0-11.2-5-11.2-11.1v-44.7
					c0-6.1,5.3-12,11.4-12h57.5c6.2,0,10.9,5.1,10.9,12V312.2z"/>
			</g>
		</g>
	</g>
</g>
<g>
	<path fill="#89B03D" d="M1647.8-28.8c5.7,0.2,9.6,6.1,5,8c5.3,1.5,6.5,7.8,0.7,9.2c-8.4,2-12.6-4.2-11.4-7.1
		c0.1-0.1,0.2-0.3,0.3-0.5l-6.8,0.8l-1.2-3.7c5.3-0.7,13.6-1.7,17-2.1c3.4-0.4-0.3-3.5-3.2-3.6L1647.8-28.8z M1643.8-19.4
		c-2.4,2.6,1.5,4.9,6.2,4.3c5.3-0.5,7.2-3.2,0.9-5.3c-0.1,0-0.3,0.1-0.5,0.1L1643.8-19.4z"/>
	<path fill="#89B03D" d="M1644.8-38.2c4.6,0.8,6.3,2.7,7.2,5.8c1.5,5.1-4.9,7.4-9.7,6.2c-3.9-1-5.7-4.3-4.9-6.2
		c0.7-1.7,2.7-2.4,4.5-2.2c2.6,0.5,4.2,2.5,4.9,4.8c1.3-0.5,2.6-1.4,2.8-2.8c0.3-2.4-2.1-4-4.6-4.6L1644.8-38.2z M1645.6-29.5
		c-1.3-4.3-6.6-3.1-6.9-2.2c-0.2,0.7,0.7,1.7,2.5,2.2c1,0.3,2.4,0.4,4,0.2C1645.4-29.4,1645.5-29.5,1645.6-29.5z"/>
	<path fill="#89B03D" d="M1639.5-54.3c5.6,0.2,9.5,6.1,4.9,8c5.2,1.4,6.4,7.8,0.7,9.2c-4.5,1.1-9.5,0.4-11.3-4.4l-2.3-6.8l1.1-0.1
		c4.4-0.5,7-0.8,10.3-1.2c3.3-0.4-0.3-3.6-3.2-3.6L1639.5-54.3z M1635.5-44.9c-2.4,2.6,1.5,4.8,6.2,4.3c5.2-0.6,7.2-3.2,0.9-5.3
		L1635.5-44.9z"/>
	<path fill="#FFFFFF" d="M1624.3-65.8c-1.3-0.1-3.7,0.1-3.3,2.2c0.2,0.8,0.7,1.6,1.5,2.2c0.8,0.6,2.2,0.8,3,0.4
		c0.8-0.4,0.9-0.5,1.3-1.2c0.4-0.6,0.8-1.8,1.1-2.8c0.3-1.2,0.6-2.4,1.1-3.4c0.4-1,1-1.8,2-2.4c7.8-4.5,14.7,9.3,8.5,12.5
		c-1.9,1-4.5,0.8-6.1-0.9l1.7-3.3c1.5,1.8,3.1,2.2,4,1.5c1.1-0.8,0.8-3.2-0.7-4.8c-0.7-0.8-1.9-1.4-3.3-1.4c-1.6,0-2.4,1.5-2.8,2.8
		c-0.4,1.3-0.6,2.1-1,3.2c-0.4,1.1-1.1,2.4-1.9,3.2c-2,2.1-5.1,2.5-7.4,0.2c-1.3-1.3-2.1-2.9-2.6-4.7c-0.5-2.5,0-4.8,1.8-6.2
		c0.9-0.7,2.1-1,3.4-1.2L1624.3-65.8z"/>
	<path fill="#FFFFFF" d="M1623.4-86.2c1.3,0.8,2.4,1.6,3.3,2.5c6.4-1.2,10.4,3,10.3,6.6c-0.1,2.8-2.1,4.5-4.7,5
		c-2.7,0.6-5.9-0.1-8.2-2.1c-2.3-2-3.7-5.7-1-8.1c0.4-0.4,1-0.7,1.8-1c-0.6-1-1.5-1.9-2.4-2.5L1623.4-86.2z M1628.2-80.6
		c0.1,0.9,0,1.8-0.4,3l-2.4-0.8c0.2-0.5,0.3-0.9,0.3-1.4c-1.9,1.1-3.1,3.4-0.4,4.2c2.4,0.7,8.7,0,9.2-2.9c0.3-1.5-1.6-3-6.3-2.2
		C1628.3-80.7,1628.3-80.6,1628.2-80.6z"/>
	<path fill="#FFFFFF" d="M1626.3-94.6c6.2,0.2,10.2,7.3,2.5,8.3l-15.1,1.8l-1.2-3.6c4.9-0.6,13.8-1.6,17.1-2c3.3-0.4-0.3-3.4-3-3.4
		L1626.3-94.6z"/>
	<path fill="#FFFFFF" d="M1621.8-107.6c5.5,0.1,9.2,5.2,5.1,7.3c4.5,1.7,6.2,6.6-0.4,7.5l-9.2,1.1l-1.2-3.7c4.7-0.6,8.1-1,11.3-1.5
		c3.1-0.4,0.5-2.5-2.1-2.9c-0.3,0-0.6,0.1-10.1,1.3l-1.2-3.6c4.7-0.6,7.9-1.1,11.2-1.5c3.3-0.5-0.1-3.1-3-3L1621.8-107.6z"/>
	<path fill="#FFFFFF" d="M1619.5-114.5c6.5,0.2,10.6,7.7,2.7,8.6l-7.5,0.9l0.5,1.6l-1.9-0.1l-0.4-1.3l-3.7,0.4l-2-3.6l4.5-0.6
		l-0.7-2.2l1.9,0.2l0.6,1.7l9.5-1.2c3.4-0.4-0.3-3.5-3.2-3.5L1619.5-114.5z"/>
	<path fill="#FFFFFF" d="M1616.9-122.2c6.5,0.2,10.8,7.8,2.7,8.8l-9.1,1l-1.2-3.7c4.8-0.6,7.8-0.9,11.2-1.4c3.4-0.4-0.3-3.7-3.2-3.7
		L1616.9-122.2z M1608.1-112.5c-0.3,0.5-0.7,0.9-1.3,1.1c-0.6,0.2-1.1,0.1-1.7-0.1c-0.5-0.3-0.9-0.7-1.1-1.3
		c-0.2-0.6-0.1-1.1,0.1-1.7c0.3-0.6,0.7-0.9,1.3-1.1c0.6-0.2,1.2-0.1,1.7,0.2c0.5,0.3,0.9,0.7,1.1,1.3
		C1608.4-113.6,1608.4-113,1608.1-112.5z"/>
	<path fill="#FFFFFF" d="M1607.6-133.8c1.3,0.8,2.4,1.6,3.3,2.5c6.4-1.2,10.4,3,10.3,6.6c-0.1,2.8-2.1,4.5-4.7,5
		c-2.7,0.6-5.9-0.1-8.2-2.1c-2.3-2-3.7-5.7-1-8.1c0.4-0.4,1-0.7,1.8-1c-0.6-1-1.5-1.9-2.4-2.5L1607.6-133.8z M1612.5-128.3
		c0.1,0.9,0,1.8-0.4,3l-2.4-0.8c0.2-0.5,0.3-0.9,0.3-1.4c-1.9,1.1-3.1,3.4-0.4,4.2c2.4,0.7,8.7,0,9.2-2.9c0.3-1.5-1.6-3-6.3-2.2
		C1612.6-128.3,1612.5-128.3,1612.5-128.3z"/>
	<path fill="#FFFFFF" d="M1607.7-150.1c7,0.3,10.1,7.4,2.6,8.5c-2,0.2-4,0.5-6,0.8c-3.3,0.4,0.1,3.3,2.9,3.5l9.5-1.3l1.3,3.8
		l-14.4,1.7l-1.2-3.7l2.2-0.3c-4.2-1.8-5.8-7,0.6-7.8c3.6-0.5,2.5-0.3,6-0.8c3.5-0.5-0.3-3.5-3.2-3.5L1607.7-150.1z"/>
	<path fill="#FFFFFF" d="M1600.2-155.2c-0.9-0.1-2.6-0.1-2.2,1.6c0.1,0.6,0.5,1.4,1.1,1.7c0.6,0.7,1.6,0.9,2.1,0.6
		c0.6-0.3,0.6-0.4,0.9-0.9c0.3-0.6,0.5-1.4,0.7-2.4c0.1-0.8,0.3-1.8,0.6-2.6c0.3-0.8,0.7-1.4,1.3-1.8c5.1-3.3,10.5,8.2,6.3,10.5
		c-1.2,0.6-3,0.3-4.2-1.1l1-2.6c1.1,1.5,2.2,2,2.8,1.4c0.8-0.6,0.4-2.5-0.6-3.9c-0.7-0.7-1.4-1.3-2.4-1.3c-1-0.1-1.5,1.1-1.8,2.1
		c-0.2,1.1-0.3,1.7-0.6,2.6c-0.2,0.8-0.6,1.9-1.2,2.5c-1.2,1.6-3.3,1.9-5-0.2c-1-1.1-1.6-2.4-1.9-3.9c-0.6-2.1-0.3-3.8,0.9-5
		c0.6-0.5,1.4-0.8,2.3-0.8L1600.2-155.2z"/>
	<path fill="#89B03D" d="M1642.8-6.2c10.2-1.2,18.7-0.5,19,1.3s-7.4,4.3-17.4,6.6c-9.9,2.3-17.7,4.7-18.9-0.9
		C1624.5-4.2,1632.8-5,1642.8-6.2z"/>
	<g>
		
			<linearGradient id="SVGID_30_" gradientUnits="userSpaceOnUse" x1="282.4614" y1="1480.361" x2="293.618" y2="1469.2043" gradientTransform="matrix(-0.3138 -0.9495 0.9495 -0.3138 314.694 733.9054)">
			<stop  offset="0" style="stop-color:#FFA300"/>
			<stop  offset="0.1395" style="stop-color:#FF9D00"/>
			<stop  offset="0.3279" style="stop-color:#FF8C00"/>
			<stop  offset="0.4847" style="stop-color:#FF7800"/>
			<stop  offset="0.5785" style="stop-color:#FF8B00"/>
			<stop  offset="0.7686" style="stop-color:#FFBC00"/>
			<stop  offset="1" style="stop-color:#FFFF00"/>
		</linearGradient>
		<path fill="url(#SVGID_30_)" d="M1629.9-2.1c-0.4,2.8-3.4,7.2-6.6,5c-1.8-1.2-2.3-3.6-1.9-5.6c0.6-2.3,2.4-3.9,4.5-4
			C1628.9-7,1630.2-5,1629.9-2.1z M1619.4-4.4c-0.5-0.2-2.1-0.5-2.6,0.1c-0.2,0.2-0.1,0.6,0.1,0.9c0.3,0.1,0.7,0.1,1.1,0.2
			c0.5,0.1,1.1,0.3,1.6,0.2C1620.3-3.3,1620-4.1,1619.4-4.4z M1618.3-1.3c-0.6,0.1-1.4,0.2-1.3,0.9c0,0.3,0.1,0.5,0.3,0.6
			c0.9,0,2,0,2.5-0.7C1620.4-1.4,1618.9-1.4,1618.3-1.3z M1620.3,1.7c-0.7,0.1-1.4,0.7-1.8,1.4l0,0c-0.1,0.2-0.2,0.4-0.3,0.7l0,0
			c0,0.1,0,0.1,0,0.2c0.3,1.3,1.9-0.6,2.3-1C1621,2.4,1621.4,1.4,1620.3,1.7z M1622.3,4.1C1622.3,4.1,1622.3,4.1,1622.3,4.1
			C1622.2,4.1,1622.2,4.1,1622.3,4.1c-0.5,0.5-1.4,1.6-1.1,2.2c0.4,0.8,1.2-0.1,1.5-0.5c0.3-0.4,1-1.4,0.4-1.8
			C1622.8,3.8,1622.5,3.8,1622.3,4.1z M1623.5-10.7c-0.6,0.1-0.7,0.8-0.6,1.4c0,0.6,0,1.4,0.6,1.5c0.9,0.2,1-0.9,0.9-1.5
			C1624.3-9.8,1624.2-10.9,1623.5-10.7z M1627.3-10.9c-0.4,0.1-0.6,0.4-0.7,0.7c-0.3,0.5-0.5,1.6,0,2c0.7,0.7,1.5-0.9,1.5-1.5
			C1628.2-10.2,1627.9-11,1627.3-10.9z M1625.7,4.5c-0.5,0.2-0.6,0.7-0.6,1.3l0,0c0.1,0.3,0.2,0.5,0.4,0.6c0.6,0.3,1.1-0.2,1.1-0.7
			c0-0.3-0.2-0.8-0.4-1C1626,4.4,1626,4.3,1625.7,4.5z M1628.2,3c-0.6,0.4-0.1,1.3,0.2,1.7c0,0,0,0,0,0c0.2,0.1,0.3,0.3,0.6,0.3
			c0.9,0.3,1.2-0.6,0.8-1.3C1629.5,3.2,1628.8,2.6,1628.2,3z M1630.5-8.9c-0.3,0.2-0.6,0.5-0.8,0.8c-0.5,0.5-1.1,1.6,0.1,1.4
			c0.8-0.1,2.4-1.4,2.2-2.3C1631.8-9.8,1630.9-9.3,1630.5-8.9z M1619.5-7.2c0.2,0.4,0.4,0.6,0.7,0.9c0.4,0.6,1.5,1.3,1.4,0.1
			c0-0.8-1.1-2.6-2-2.5C1618.9-8.6,1619.3-7.6,1619.5-7.2z"/>
	</g>
</g>
<g>
	<path fill="#89B03D" d="M1665,88.9c-5.3-2.2-6.9-9-1.9-9.2c-4.4-3.2-3.4-9.6,2.5-8.9c8.6,1,10.3,8.3,8.2,10.7
		c-0.1,0.1-0.3,0.2-0.4,0.4l6.6,1.6l-0.1,3.9c-5.2-1.2-13.3-3.1-16.6-3.9c-3.3-0.8-1,3.4,1.7,4.4L1665,88.9z M1672,81.5
		c3.2-1.6,0.3-5.1-4.3-6.2c-5.1-1.3-7.9,0.5-2.7,4.6c0.1,0,0.3,0,0.5,0.1L1672,81.5z"/>
	<path fill="#89B03D" d="M1664.6,98.7c-4-2.4-5-4.7-4.8-8c0.4-5.4,7.1-5.2,11.2-2.4c3.3,2.3,3.8,6,2.4,7.6c-1.2,1.4-3.4,1.4-5,0.4
		c-2.3-1.4-3.1-3.8-2.9-6.2c-1.4,0-3,0.4-3.6,1.6c-1.1,2.1,0.5,4.5,2.7,5.9L1664.6,98.7z M1666.9,90.3c-0.3,4.5,5.1,5.2,5.7,4.5
		c0.4-0.6,0-1.8-1.6-2.9c-0.9-0.6-2.1-1.2-3.7-1.6C1667.1,90.3,1666.9,90.3,1666.9,90.3z"/>
	<path fill="#89B03D" d="M1663.9,115.7c-5.1-2.1-6.7-9-1.9-9.2c-4.4-3.2-3.3-9.6,2.5-8.9c4.6,0.6,9,3,9,8.1l-0.3,7.2l-1.1-0.3
		c-4.3-1-6.8-1.7-10-2.5c-3.2-0.7-0.9,3.5,1.7,4.5L1663.9,115.7z M1670.9,108.2c3.2-1.6,0.3-5.1-4.3-6.2c-5.1-1.3-7.8,0.5-2.7,4.6
		L1670.9,108.2z"/>
	<path fill="#FFFFFF" d="M1674.2,131.8c1.2,0.5,3.4,1.2,3.8-0.9c0.1-0.8-0.1-1.7-0.6-2.5c-0.5-0.9-1.8-1.5-2.6-1.4
		c-0.9,0.1-1,0.2-1.7,0.6c-0.6,0.4-1.4,1.4-2,2.3c-0.7,1-1.4,2-2.2,2.8c-0.7,0.8-1.6,1.4-2.7,1.6c-8.9,1.5-10.5-13.8-3.6-14.6
		c2.1-0.2,4.5,0.8,5.5,3l-2.8,2.5c-0.7-2.2-2.1-3.2-3.2-2.8c-1.3,0.4-1.9,2.7-1.1,4.7c0.4,1,1.3,2,2.6,2.5c1.5,0.6,2.7-0.6,3.6-1.6
		c0.8-1.1,1.3-1.7,2-2.6c0.8-0.9,1.9-1.9,2.9-2.3c2.6-1.3,5.6-0.6,7,2.4c0.8,1.7,1,3.4,0.8,5.3c-0.4,2.5-1.7,4.5-3.9,5.2
		c-1.1,0.3-2.3,0.3-3.6-0.1L1674.2,131.8z"/>
	<path fill="#FFFFFF" d="M1667.9,151.2c-1-1.2-1.7-2.3-2.2-3.5c-6.4-1.1-8.7-6.4-7.3-9.7c1.1-2.6,3.5-3.5,6.1-3.1
		c2.7,0.4,5.5,2.2,7,4.9c1.4,2.7,1.4,6.6-1.9,7.9c-0.5,0.2-1.2,0.3-2,0.3c0.2,1.1,0.7,2.3,1.3,3.2L1667.9,151.2z M1665.3,144.3
		c0.2-0.9,0.6-1.7,1.4-2.7l2,1.5c-0.4,0.4-0.6,0.8-0.8,1.2c2.1-0.4,4.1-2.1,1.9-3.8c-2-1.5-8.2-3-9.7-0.5c-0.8,1.3,0.5,3.3,5.1,4.2
		C1665.2,144.3,1665.3,144.3,1665.3,144.3z"/>
	<path fill="#FFFFFF" d="M1662.3,158c-5.7-2.3-7-10.4,0.5-8.6l14.8,3.5l-0.1,3.8c-4.8-1.1-13.5-3.3-16.8-4.1
		c-3.2-0.7-0.9,3.3,1.7,4.3L1662.3,158z"/>
	<path fill="#FFFFFF" d="M1661.9,171.8c-5.1-2-6.8-8.1-2.2-8.6c-3.6-3.1-3.5-8.4,3-6.9l9,2.1l-0.1,3.9c-4.6-1-7.9-1.9-11.1-2.6
		c-3.1-0.7-1.3,2.2,1,3.5c0.3,0.1,0.6,0.1,10,2.3l-0.1,3.8c-4.6-1-7.8-1.8-11.1-2.5c-3.3-0.7-0.9,2.9,1.7,3.9L1661.9,171.8z"/>
	<path fill="#FFFFFF" d="M1661.7,179.1c-6-2.5-7.3-10.9,0.4-9l7.3,1.8l0.1-1.7l1.7,0.8l0,1.4l3.7,0.9l0.6,4.1l-4.4-1l-0.1,2.3
		l-1.7-0.9l0.1-1.8l-9.3-2.2c-3.3-0.8-1,3.3,1.8,4.4L1661.7,179.1z"/>
	<path fill="#FFFFFF" d="M1661.5,187.2c-6-2.5-7.4-11.1,0.5-9.2l8.9,2.2l-0.1,3.9c-4.8-1.1-7.7-1.8-11-2.6c-3.4-0.8-1,3.5,1.7,4.6
		L1661.5,187.2z M1673.1,181.2c0.4-0.4,1-0.6,1.6-0.5c0.6,0.1,1.1,0.3,1.6,0.7c0.4,0.5,0.6,1,0.6,1.6s-0.3,1.1-0.7,1.5
		c-0.5,0.4-1,0.6-1.6,0.6c-0.7,0-1.2-0.3-1.6-0.8c-0.4-0.5-0.6-1-0.6-1.6C1672.4,182.1,1672.7,181.6,1673.1,181.2z"/>
	<path fill="#FFFFFF" d="M1666.1,201.3c-1-1.2-1.7-2.3-2.2-3.5c-6.4-1.1-8.7-6.4-7.3-9.7c1.1-2.6,3.5-3.5,6.1-3.1
		c2.7,0.4,5.5,2.2,7,4.9c1.4,2.7,1.4,6.6-1.9,7.9c-0.5,0.2-1.2,0.3-2,0.3c0.2,1.1,0.7,2.3,1.3,3.2L1666.1,201.3z M1663.5,194.4
		c0.2-0.9,0.6-1.7,1.4-2.7l2,1.5c-0.4,0.4-0.6,0.8-0.8,1.2c2.1-0.4,4.1-2.1,1.9-3.8c-2-1.5-8.2-3-9.7-0.5c-0.8,1.3,0.5,3.3,5.1,4.2
		C1663.4,194.4,1663.5,194.4,1663.5,194.4z"/>
	<path fill="#FFFFFF" d="M1660.4,216.6c-6.4-2.7-6.9-10.4,0.5-8.9c2,0.5,3.9,0.9,5.9,1.4c3.2,0.7,1.1-3.2-1.5-4.3l-9.3-2.1l0.1-4
		l14.1,3.4l-0.1,3.9l-2.1-0.5c3.3,3.2,3,8.6-3.3,7.1c-3.5-0.8-2.5-0.6-5.9-1.4c-3.5-0.8-1,3.4,1.7,4.4L1660.4,216.6z"/>
	<path fill="#FFFFFF" d="M1665.7,224c0.8,0.5,2.4,1,2.6-0.7c0.1-0.6,0-1.5-0.4-2c-0.3-0.9-1.1-1.4-1.7-1.3c-0.6,0.1-0.7,0.1-1.1,0.5
		c-0.4,0.5-1,1.2-1.4,2c-0.4,0.7-0.9,1.6-1.4,2.2c-0.5,0.6-1.1,1-1.8,1.3c-6,1.3-6.9-11.4-2.3-12c1.4-0.2,2.9,0.7,3.6,2.5l-1.9,2
		c-0.5-1.8-1.4-2.6-2.2-2.3c-0.9,0.3-1.3,2.2-0.8,3.8c0.4,0.9,0.9,1.7,1.7,2.1c0.9,0.5,1.8-0.5,2.4-1.3c0.6-1,0.9-1.5,1.4-2.2
		c0.5-0.7,1.2-1.5,1.9-1.9c1.7-1.1,3.7-0.6,4.6,1.9c0.5,1.4,0.7,2.8,0.5,4.3c-0.2,2.1-1.1,3.7-2.6,4.3c-0.7,0.3-1.6,0.2-2.5,0
		L1665.7,224z"/>
	<path fill="#89B03D" d="M1677.6,69.4c-10-2.4-17.7-6-17.4-7.8c0.4-1.8,8.5-1.4,18.6-0.1c10.1,1.3,18.3,1.8,17.4,7.5
		C1695.4,74,1687.4,71.8,1677.6,69.4z"/>
	<g>
		
			<linearGradient id="SVGID_31_" gradientUnits="userSpaceOnUse" x1="448.2024" y1="1543.8521" x2="458.9951" y2="1533.0592" gradientTransform="matrix(-0.1188 -0.9929 0.9929 -0.1188 222.8398 705.4971)">
			<stop  offset="0" style="stop-color:#FFA300"/>
			<stop  offset="0.1395" style="stop-color:#FF9D00"/>
			<stop  offset="0.3279" style="stop-color:#FF8C00"/>
			<stop  offset="0.4847" style="stop-color:#FF7800"/>
			<stop  offset="0.5785" style="stop-color:#FF8B00"/>
			<stop  offset="0.7686" style="stop-color:#FFBC00"/>
			<stop  offset="1" style="stop-color:#FFFF00"/>
		</linearGradient>
		<path fill="url(#SVGID_31_)" d="M1691.1,70.1c1.3-2.5,5.7-5.6,7.9-2.4c1.2,1.8,1,4.2-0.2,5.9c-1.4,2-3.6,2.8-5.6,2.2
			C1690.3,75,1689.8,72.8,1691.1,70.1z M1700.2,75.9c0.4,0.4,1.8,1.2,2.5,0.8c0.3-0.2,0.3-0.5,0.2-0.8c-0.3-0.2-0.6-0.4-0.9-0.5
			c-0.4-0.2-0.9-0.7-1.4-0.7C1699.7,74.6,1699.7,75.5,1700.2,75.9z M1702.3,73.4c0.6,0.1,1.3,0.3,1.6-0.4c0.1-0.2,0-0.5-0.1-0.7
			c-0.8-0.3-1.8-0.7-2.5-0.2C1700.3,72.7,1701.6,73.3,1702.3,73.4z M1701.4,69.9c0.7,0.1,1.6-0.2,2.2-0.7l0,0
			c0.2-0.2,0.4-0.3,0.5-0.5l0,0c0-0.1,0-0.1,0.1-0.2c0.1-1.3-2-0.1-2.5,0.2C1701.1,69,1700.3,69.7,1701.4,69.9z M1700.4,67
			C1700.4,67,1700.4,66.9,1700.4,67C1700.5,66.9,1700.5,66.9,1700.4,67c0.7-0.3,1.9-1,1.8-1.7c0-0.9-1.2-0.3-1.6-0.1
			c-0.4,0.3-1.4,1-1,1.5C1699.8,67,1700.1,67.1,1700.4,67z M1694.1,80.4c0.6,0.1,0.9-0.5,1.1-1.1c0.3-0.6,0.5-1.3,0-1.6
			c-0.8-0.5-1.3,0.5-1.4,1.1C1693.7,79.2,1693.4,80.3,1694.1,80.4z M1690.4,79.3c0.4,0.1,0.7-0.1,0.9-0.4c0.5-0.4,1-1.3,0.7-1.9
			c-0.4-0.9-1.7,0.3-2,0.9C1689.9,78.3,1689.8,79.2,1690.4,79.3z M1697.4,65.3c0.6,0,0.8-0.5,1-1l0,0c0-0.3,0-0.5-0.1-0.7
			c-0.4-0.5-1.1-0.2-1.3,0.3c-0.1,0.3-0.1,0.8,0,1.1C1697,65.4,1697,65.4,1697.4,65.3z M1694.5,65.9c0.6-0.1,0.6-1.1,0.4-1.7
			c0,0,0,0,0,0c-0.1-0.2-0.2-0.4-0.4-0.5c-0.8-0.6-1.3,0.2-1.2,1C1693.4,65.2,1693.8,66.1,1694.5,65.9z M1688.2,76.3
			c0.4-0.1,0.7-0.3,1-0.5c0.7-0.3,1.6-1.1,0.4-1.4c-0.8-0.2-2.7,0.5-2.9,1.3C1686.6,76.6,1687.7,76.5,1688.2,76.3z M1699.1,78.4
			c-0.1-0.4-0.2-0.7-0.4-1.1c-0.2-0.7-0.9-1.7-1.3-0.6c-0.3,0.7,0.1,2.8,1,3C1699.2,80,1699.1,79,1699.1,78.4z"/>
	</g>
</g>
<g>
	<path fill="#89B03D" d="M1699.6-127c-5-2.7-5.8-9.8-0.8-9.4c-4-3.7-2.3-9.9,3.5-8.5c8.4,2,9.3,9.4,6.9,11.5
		c-0.1,0.1-0.3,0.2-0.5,0.3l6.4,2.3l-0.6,3.8c-5-1.8-12.9-4.6-16.1-5.8c-3.2-1.1-1.4,3.3,1.2,4.6L1699.6-127z M1707.4-133.6
		c3.3-1.2,0.8-5-3.6-6.7c-4.9-1.9-7.9-0.4-3.2,4.3c0.1,0,0.3,0.1,0.5,0.1L1707.4-133.6z"/>
	<path fill="#89B03D" d="M1698-117.4c-3.7-2.8-4.4-5.3-3.8-8.4c1-5.3,7.7-4.3,11.4-1.1c3,2.6,3.1,6.4,1.5,7.8c-1.4,1.3-3.5,1-5-0.1
		c-2.1-1.6-2.7-4.1-2.2-6.5c-1.4-0.2-3,0.1-3.8,1.2c-1.3,2,0,4.5,2,6.2L1698-117.4z M1701.2-125.5c-0.8,4.4,4.4,5.7,5.1,5.1
		c0.5-0.5,0.2-1.8-1.3-3.1c-0.8-0.7-2-1.4-3.5-2C1701.4-125.4,1701.3-125.5,1701.2-125.5z"/>
	<path fill="#89B03D" d="M1695.4-100.6c-4.9-2.7-5.7-9.7-0.8-9.4c-4-3.6-2.2-9.9,3.5-8.5c4.5,1.1,8.6,4,8,9l-1.1,7.1l-1-0.4
		c-4.2-1.5-6.6-2.5-9.7-3.6c-3.1-1.1-1.3,3.4,1.2,4.7L1695.4-100.6z M1703.2-107.2c3.4-1.2,0.8-5-3.6-6.7c-4.9-1.8-7.8-0.4-3.2,4.3
		L1703.2-107.2z"/>
	<path fill="#FFFFFF" d="M1703.7-83.4c1.1,0.7,3.3,1.6,3.9-0.5c0.2-0.8,0.1-1.7-0.4-2.6c-0.4-0.9-1.6-1.7-2.5-1.7
		c-0.9,0-1,0-1.7,0.5c-0.6,0.4-1.5,1.2-2.2,2c-0.8,0.9-1.6,1.8-2.5,2.5c-0.8,0.7-1.7,1.2-2.8,1.3c-9,0.5-8.9-14.9-2-15
		c2.1,0,4.4,1.3,5.1,3.6l-3,2.2c-0.5-2.3-1.8-3.4-2.9-3.2c-1.4,0.2-2.2,2.5-1.6,4.6c0.3,1.1,1,2.1,2.3,2.8c1.4,0.8,2.8-0.3,3.8-1.2
		c1-1,1.5-1.6,2.3-2.4c0.9-0.8,2.1-1.6,3.1-2c2.7-1,5.7,0,6.7,3.2c0.6,1.8,0.6,3.5,0.2,5.3c-0.7,2.5-2.2,4.3-4.4,4.7
		c-1.1,0.2-2.3,0-3.6-0.5L1703.7-83.4z"/>
	<path fill="#FFFFFF" d="M1695.4-64.9c-0.8-1.3-1.5-2.5-1.8-3.7c-6.3-1.8-8-7.4-6.2-10.5c1.3-2.5,3.9-3.1,6.4-2.4
		c2.7,0.7,5.3,2.8,6.4,5.6c1.1,2.8,0.7,6.8-2.8,7.6c-0.6,0.1-1.3,0.2-2,0.1c0.1,1.2,0.5,2.3,1,3.3L1695.4-64.9z M1693.6-72
		c0.3-0.9,0.8-1.7,1.7-2.5l1.8,1.8c-0.4,0.3-0.7,0.7-0.9,1.1c2.1-0.1,4.3-1.6,2.3-3.6c-1.8-1.7-7.8-3.9-9.5-1.6
		c-1,1.2,0.1,3.4,4.6,4.8C1693.5-72,1693.5-72,1693.6-72z"/>
	<path fill="#FFFFFF" d="M1689-58.7c-5.4-3-5.8-11.1,1.5-8.5l14.3,5.2l-0.6,3.8c-4.6-1.7-13.1-4.8-16.2-6c-3.1-1.1-1.3,3.2,1.2,4.4
		L1689-58.7z"/>
	<path fill="#FFFFFF" d="M1687.1-45.1c-4.8-2.6-5.8-8.8-1.3-8.8c-3.2-3.5-2.5-8.7,3.7-6.5l8.7,3.2l-0.6,3.8
		c-4.4-1.6-7.7-2.8-10.7-3.8c-3-1-1.6,2,0.6,3.6c0.3,0.1,0.6,0.2,9.6,3.4l-0.6,3.8c-4.4-1.5-7.5-2.6-10.7-3.7
		c-3.2-1.1-1.3,2.8,1.3,4.1L1687.1-45.1z"/>
	<path fill="#FFFFFF" d="M1686-37.8c-5.7-3.2-6-11.7,1.5-8.9l7.1,2.6l0.3-1.7l1.6,1l-0.2,1.3l3.5,1.3l0.2,4.1l-4.3-1.5l-0.3,2.3
		l-1.6-1.1l0.3-1.8l-9-3.3c-3.2-1.1-1.3,3.2,1.3,4.6L1686-37.8z"/>
	<path fill="#FFFFFF" d="M1684.9-29.8c-5.7-3.1-6.1-11.9,1.5-9.1l8.6,3.2l-0.6,3.9c-4.6-1.6-7.4-2.7-10.6-3.8
		c-3.3-1.2-1.4,3.4,1.2,4.8L1684.9-29.8z M1697.1-34.5c0.5-0.3,1-0.4,1.7-0.4c0.6,0.1,1.1,0.4,1.5,0.9c0.4,0.5,0.5,1.1,0.4,1.7
		c-0.1,0.6-0.4,1.1-0.9,1.4c-0.5,0.4-1.1,0.5-1.7,0.4c-0.6-0.1-1.1-0.4-1.5-0.9c-0.4-0.5-0.5-1.1-0.4-1.7
		C1696.3-33.6,1696.6-34.1,1697.1-34.5z"/>
	<path fill="#FFFFFF" d="M1687.9-15.2c-0.8-1.3-1.5-2.5-1.8-3.7c-6.3-1.8-8-7.4-6.2-10.5c1.3-2.5,3.9-3.1,6.4-2.4
		c2.7,0.7,5.3,2.8,6.4,5.6c1.1,2.8,0.7,6.8-2.8,7.6c-0.6,0.1-1.3,0.2-2,0.1c0.1,1.2,0.5,2.3,1,3.3L1687.9-15.2z M1686-22.4
		c0.3-0.9,0.8-1.7,1.7-2.5l1.8,1.8c-0.4,0.3-0.7,0.7-0.9,1.1c2.1-0.1,4.3-1.6,2.3-3.6c-1.8-1.7-7.8-3.9-9.5-1.6
		c-1,1.2,0.1,3.4,4.6,4.8C1686-22.4,1686-22.4,1686-22.4z"/>
	<path fill="#FFFFFF" d="M1680.4-0.8c-6.1-3.4-5.6-11.2,1.5-8.8c1.9,0.7,3.8,1.4,5.7,2c3.1,1.1,1.4-3-1-4.5l-9-3.2l0.6-4l13.6,5
		l-0.6,3.8l-2-0.7c3,3.5,2,8.9-4.1,6.7c-3.4-1.2-2.4-0.9-5.7-2c-3.4-1.1-1.4,3.2,1.2,4.5L1680.4-0.8z"/>
	<path fill="#FFFFFF" d="M1684.8,7.2c0.8,0.5,2.2,1.3,2.6-0.4c0.2-0.6,0.1-1.5-0.2-2c-0.2-0.9-1-1.5-1.6-1.5c-0.6,0-0.7,0.1-1.2,0.4
		c-0.5,0.4-1.1,1-1.7,1.8c-0.5,0.7-1.1,1.4-1.7,2.1c-0.6,0.5-1.2,0.9-1.9,1.1c-6.1,0.6-5.6-12.1-0.9-12.2c1.4,0,2.8,1.1,3.3,2.8
		l-2.1,1.8c-0.3-1.8-1.1-2.7-1.9-2.5c-1,0.2-1.5,2.1-1.2,3.7c0.3,1,0.7,1.8,1.5,2.3c0.9,0.6,1.9-0.3,2.6-1c0.7-0.9,1-1.4,1.7-2
		c0.5-0.7,1.4-1.4,2.1-1.7c1.8-0.9,3.8-0.2,4.4,2.4c0.4,1.4,0.3,2.9,0,4.3c-0.4,2.1-1.5,3.6-3,4c-0.7,0.2-1.6,0-2.4-0.3L1684.8,7.2z
		"/>
	<path fill="#89B03D" d="M1714.2-145c-9.6-3.5-16.9-8-16.4-9.7s8.6-0.5,18.5,2c9.8,2.4,18,3.8,16.5,9.4
		C1731.5-138.4,1723.7-141.5,1714.2-145z"/>
	<g>
		
			<linearGradient id="SVGID_32_" gradientUnits="userSpaceOnUse" x1="807.6544" y1="1569.5211" x2="818.4471" y2="1558.7284" gradientTransform="matrix(-5.152561e-03 -1 1 -5.152561e-03 172.7813 681.1049)">
			<stop  offset="0" style="stop-color:#FFA300"/>
			<stop  offset="0.1395" style="stop-color:#FF9D00"/>
			<stop  offset="0.3279" style="stop-color:#FF8C00"/>
			<stop  offset="0.4847" style="stop-color:#FF7800"/>
			<stop  offset="0.5785" style="stop-color:#FF8B00"/>
			<stop  offset="0.7686" style="stop-color:#FFBC00"/>
			<stop  offset="1" style="stop-color:#FFFF00"/>
		</linearGradient>
		<path fill="url(#SVGID_32_)" d="M1727.6-142.7c1.6-2.3,6.3-4.9,8.1-1.5c1,1.9,0.5,4.2-0.8,5.9c-1.6,1.8-3.9,2.4-5.8,1.5
			C1726.3-138,1726-140.3,1727.6-142.7z M1735.9-135.9c0.3,0.4,1.7,1.4,2.3,1.1c0.3-0.1,0.4-0.5,0.3-0.8c-0.3-0.3-0.6-0.4-0.9-0.6
			c-0.4-0.3-0.8-0.8-1.3-0.9C1735.6-137.4,1735.5-136.5,1735.9-135.9z M1738.3-138.2c0.6,0.2,1.3,0.5,1.6-0.2c0.1-0.2,0.1-0.5,0-0.7
			c-0.8-0.4-1.7-0.9-2.5-0.5C1736.4-139.2,1737.7-138.4,1738.3-138.2z M1737.9-141.8c0.7,0.2,1.6,0,2.3-0.5l0,0
			c0.2-0.1,0.4-0.3,0.6-0.5l0,0c0-0.1,0.1-0.1,0.1-0.2c0.3-1.3-2-0.3-2.5-0.1C1737.6-142.8,1736.7-142.1,1737.9-141.8z
			 M1737.2-144.8C1737.2-144.8,1737.2-144.8,1737.2-144.8C1737.2-144.9,1737.2-144.9,1737.2-144.8c0.7-0.2,2-0.8,2-1.5
			c0.1-0.9-1.2-0.5-1.6-0.3c-0.4,0.2-1.5,0.8-1.2,1.4C1736.6-144.8,1736.9-144.7,1737.2-144.8z M1729.4-132.2c0.6,0.2,0.9-0.4,1.2-1
			c0.3-0.5,0.6-1.2,0.2-1.6c-0.7-0.6-1.3,0.3-1.5,0.9C1729.1-133.4,1728.7-132.4,1729.4-132.2z M1725.9-133.7c0.4,0.1,0.7,0,1-0.3
			c0.5-0.3,1.1-1.2,0.9-1.8c-0.3-0.9-1.7,0.1-2.1,0.6C1725.5-134.8,1725.3-133.9,1725.9-133.7z M1734.4-146.8c0.6,0,0.9-0.4,1.1-0.9
			l0,0c0.1-0.3,0.1-0.5-0.1-0.7c-0.4-0.6-1.1-0.3-1.3,0.2c-0.1,0.3-0.2,0.8-0.1,1.1C1734-146.8,1734-146.8,1734.4-146.8z
			 M1731.5-146.6c0.7-0.1,0.7-1.1,0.6-1.6c0,0,0,0,0,0c-0.1-0.2-0.2-0.4-0.4-0.5c-0.7-0.7-1.3,0-1.3,0.8
			C1730.4-147.4,1730.7-146.5,1731.5-146.6z M1724-136.9c0.4-0.1,0.7-0.2,1.1-0.4c0.7-0.2,1.7-0.9,0.6-1.3c-0.7-0.3-2.8,0.1-3,1
			C1722.4-136.8,1723.5-136.8,1724-136.9z M1734.6-133.6c0-0.4-0.1-0.8-0.3-1.1c-0.1-0.7-0.7-1.8-1.2-0.7c-0.3,0.7-0.2,2.8,0.6,3.1
			C1734.5-132,1734.6-133.1,1734.6-133.6z"/>
	</g>
</g>
<g>
	<path fill="#89B03D" d="M1721.8-311.7c-5.1-2.6-6.2-9.5-1.1-9.3c-4.2-3.5-2.6-9.8,3.2-8.7c8.5,1.7,9.6,9.1,7.3,11.3
		c-0.1,0.1-0.3,0.2-0.5,0.3l6.5,2.1l-0.4,3.8c-5-1.6-13.1-4.2-16.3-5.2c-3.2-1-1.2,3.3,1.4,4.6L1721.8-311.7z M1729.4-318.6
		c3.3-1.4,0.7-5.1-3.8-6.5c-5-1.7-7.9-0.1-3.1,4.4c0.1,0,0.3,0.1,0.5,0.1L1729.4-318.6z"/>
	<path fill="#89B03D" d="M1720.6-302c-3.8-2.7-4.6-5.1-4.1-8.3c0.8-5.3,7.5-4.6,11.4-1.5c3.1,2.5,3.4,6.3,1.8,7.7
		c-1.3,1.3-3.5,1.1-5,0c-2.2-1.5-2.8-4-2.4-6.4c-1.4-0.1-3,0.2-3.7,1.3c-1.3,2.1,0.2,4.5,2.2,6.1L1720.6-302z M1723.6-310.2
		c-0.7,4.4,4.6,5.6,5.3,4.9c0.5-0.5,0.1-1.8-1.4-3c-0.8-0.7-2-1.4-3.6-1.8C1723.7-310.2,1723.6-310.2,1723.6-310.2z"/>
	<path fill="#89B03D" d="M1718.6-285.1c-5-2.5-6-9.5-1.1-9.3c-4.1-3.5-2.5-9.8,3.2-8.7c4.5,0.9,8.8,3.7,8.4,8.7l-0.8,7.1l-1-0.3
		c-4.2-1.4-6.7-2.3-9.8-3.3c-3.1-1-1.2,3.4,1.3,4.6L1718.6-285.1z M1726.2-292c3.3-1.4,0.7-5-3.8-6.6c-5-1.7-7.8-0.1-3.1,4.4
		L1726.2-292z"/>
	<path fill="#FFFFFF" d="M1727.5-268.3c1.2,0.6,3.3,1.5,3.9-0.6c0.1-0.8,0-1.7-0.4-2.6c-0.5-0.9-1.6-1.6-2.5-1.6
		c-0.9,0-1,0.1-1.7,0.5c-0.6,0.4-1.5,1.3-2.2,2.1c-0.8,0.9-1.6,1.9-2.4,2.6c-0.8,0.7-1.7,1.3-2.8,1.4c-9,0.8-9.4-14.6-2.5-14.9
		c2.1-0.1,4.4,1.1,5.2,3.4l-2.9,2.3c-0.6-2.3-1.9-3.3-3-3.1c-1.4,0.3-2.1,2.6-1.4,4.6c0.3,1.1,1.1,2.1,2.4,2.7
		c1.4,0.7,2.8-0.4,3.7-1.3c0.9-1,1.4-1.6,2.2-2.5c0.9-0.8,2.1-1.7,3-2.1c2.7-1.1,5.7-0.2,6.8,2.9c0.6,1.7,0.7,3.5,0.4,5.3
		c-0.6,2.5-2.1,4.4-4.3,4.9c-1.1,0.2-2.3,0.1-3.6-0.4L1727.5-268.3z"/>
	<path fill="#FFFFFF" d="M1719.8-249.4c-0.9-1.2-1.5-2.5-1.9-3.6c-6.3-1.6-8.2-7.1-6.6-10.3c1.3-2.5,3.8-3.2,6.4-2.6
		c2.7,0.6,5.4,2.6,6.5,5.4c1.2,2.8,0.9,6.7-2.5,7.7c-0.6,0.2-1.3,0.2-2,0.1c0.2,1.2,0.6,2.3,1.1,3.3L1719.8-249.4z M1717.8-256.5
		c0.3-0.9,0.8-1.7,1.6-2.6l1.8,1.7c-0.4,0.3-0.7,0.7-0.9,1.1c2.1-0.2,4.2-1.8,2.2-3.6c-1.9-1.6-7.9-3.6-9.6-1.3
		c-0.9,1.3,0.2,3.4,4.8,4.6C1717.7-256.5,1717.7-256.5,1717.8-256.5z"/>
	<path fill="#FFFFFF" d="M1713.7-243c-5.5-2.8-6.2-10.9,1.2-8.5l14.5,4.7l-0.4,3.8c-4.7-1.5-13.2-4.4-16.4-5.4
		c-3.1-1-1.2,3.2,1.3,4.4L1713.7-243z"/>
	<path fill="#FFFFFF" d="M1712.2-229.3c-4.9-2.4-6.1-8.6-1.6-8.7c-3.3-3.4-2.8-8.6,3.5-6.7l8.8,2.9l-0.4,3.8
		c-4.5-1.4-7.8-2.5-10.8-3.4c-3-0.9-1.5,2.1,0.7,3.6c0.3,0.1,0.6,0.2,9.8,3l-0.4,3.8c-4.5-1.4-7.6-2.4-10.8-3.3
		c-3.2-1-1.2,2.8,1.4,4L1712.2-229.3z"/>
	<path fill="#FFFFFF" d="M1711.4-222.1c-5.8-3-6.4-11.5,1.2-9l7.2,2.3l0.2-1.7l1.6,0.9l-0.2,1.4l3.6,1.2l0.3,4.1l-4.4-1.4l-0.3,2.3
		l-1.6-1l0.2-1.8l-9.1-3c-3.2-1-1.2,3.3,1.4,4.5L1711.4-222.1z"/>
	<path fill="#FFFFFF" d="M1710.5-214c-5.8-2.9-6.5-11.6,1.2-9.1l8.7,2.9l-0.5,3.9c-4.7-1.5-7.5-2.4-10.7-3.5c-3.3-1-1.3,3.4,1.4,4.7
		L1710.5-214z M1722.6-219.1c0.5-0.3,1-0.5,1.6-0.4c0.6,0.1,1.1,0.4,1.5,0.8c0.4,0.5,0.5,1,0.5,1.7c-0.1,0.6-0.4,1.1-0.8,1.5
		c-0.5,0.4-1,0.6-1.7,0.5c-0.6-0.1-1.1-0.4-1.5-0.9c-0.4-0.5-0.5-1.1-0.4-1.7C1721.9-218.2,1722.1-218.7,1722.6-219.1z"/>
	<path fill="#FFFFFF" d="M1714-199.6c-0.9-1.2-1.5-2.5-1.9-3.6c-6.3-1.6-8.2-7.1-6.6-10.3c1.3-2.5,3.8-3.2,6.4-2.6
		c2.7,0.6,5.4,2.6,6.5,5.4c1.2,2.8,0.9,6.7-2.5,7.7c-0.6,0.2-1.3,0.2-2,0.1c0.2,1.2,0.6,2.3,1.1,3.3L1714-199.6z M1712-206.6
		c0.3-0.9,0.8-1.7,1.6-2.6l1.8,1.7c-0.4,0.3-0.7,0.7-0.9,1.1c2.1-0.2,4.2-1.8,2.2-3.6c-1.9-1.6-7.9-3.6-9.6-1.3
		c-0.9,1.3,0.2,3.4,4.8,4.6C1711.9-206.6,1712-206.6,1712-206.6z"/>
	<path fill="#FFFFFF" d="M1707.1-184.8c-6.2-3.2-6-11,1.2-8.9c1.9,0.6,3.9,1.2,5.8,1.8c3.2,1,1.3-3.1-1.2-4.4l-9.2-2.9l0.5-4
		l13.8,4.5l-0.4,3.9l-2.1-0.7c3.1,3.4,2.4,8.8-3.9,6.9c-3.4-1.1-2.4-0.8-5.8-1.8c-3.4-1-1.2,3.3,1.4,4.5L1707.1-184.8z"/>
	<path fill="#FFFFFF" d="M1711.8-177c0.8,0.5,2.3,1.2,2.6-0.5c0.2-0.6,0.1-1.5-0.3-2c-0.3-0.9-1-1.5-1.6-1.4c-0.6,0-0.7,0.1-1.2,0.4
		c-0.5,0.4-1,1.1-1.6,1.9c-0.5,0.7-1.1,1.5-1.6,2.1c-0.6,0.6-1.2,1-1.9,1.1c-6,0.8-6-11.9-1.3-12.2c1.4-0.1,2.8,1,3.4,2.7l-2,1.9
		c-0.3-1.8-1.2-2.7-2-2.4c-1,0.3-1.5,2.1-1.1,3.8c0.3,0.9,0.8,1.7,1.6,2.2c0.9,0.5,1.8-0.4,2.5-1.1c0.7-0.9,1-1.5,1.6-2.1
		c0.5-0.7,1.4-1.4,2.1-1.8c1.7-1,3.8-0.3,4.5,2.3c0.4,1.4,0.4,2.9,0.1,4.3c-0.4,2.1-1.4,3.6-2.9,4.1c-0.7,0.2-1.6,0.1-2.5-0.2
		L1711.8-177z"/>
	<path fill="#89B03D" d="M1735.9-330.2c-9.7-3.2-17.2-7.4-16.7-9.1c0.5-1.7,8.5-0.8,18.5,1.3c9.9,2.1,18.1,3.2,16.8,8.8
		C1753.3-324.2,1745.5-327,1735.9-330.2z"/>
	<g>
		
			<linearGradient id="SVGID_33_" gradientUnits="userSpaceOnUse" x1="946.018" y1="1611.0433" x2="956.8107" y2="1600.2506" gradientTransform="matrix(-4.009287e-02 -0.9992 0.9992 -4.009287e-02 188.2894 689.2078)">
			<stop  offset="0" style="stop-color:#FFA300"/>
			<stop  offset="0.1395" style="stop-color:#FF9D00"/>
			<stop  offset="0.3279" style="stop-color:#FF8C00"/>
			<stop  offset="0.4847" style="stop-color:#FF7800"/>
			<stop  offset="0.5785" style="stop-color:#FF8B00"/>
			<stop  offset="0.7686" style="stop-color:#FFBC00"/>
			<stop  offset="1" style="stop-color:#FFFF00"/>
		</linearGradient>
		<path fill="url(#SVGID_33_)" d="M1749.3-328.4c1.5-2.3,6.1-5.2,8.1-1.8c1.1,1.9,0.6,4.2-0.6,5.9c-1.5,1.9-3.8,2.5-5.8,1.7
			C1748.2-323.6,1747.8-325.9,1749.3-328.4z M1757.9-321.9c0.3,0.4,1.7,1.3,2.4,1c0.3-0.1,0.3-0.5,0.3-0.8c-0.3-0.2-0.6-0.4-0.9-0.6
			c-0.4-0.3-0.9-0.8-1.3-0.8C1757.5-323.3,1757.5-322.4,1757.9-321.9z M1760.2-324.3c0.6,0.2,1.3,0.4,1.6-0.3c0.1-0.2,0.1-0.5,0-0.7
			c-0.8-0.4-1.8-0.9-2.5-0.4C1758.2-325.1,1759.6-324.4,1760.2-324.3z M1759.6-327.8c0.7,0.2,1.6-0.1,2.2-0.5l0,0
			c0.2-0.1,0.4-0.3,0.5-0.5l0,0c0-0.1,0.1-0.1,0.1-0.2c0.2-1.3-2-0.3-2.5,0C1759.3-328.8,1758.5-328.1,1759.6-327.8z M1758.8-330.8
			C1758.8-330.8,1758.9-330.8,1758.8-330.8C1758.9-330.8,1758.9-330.8,1758.8-330.8c0.7-0.2,2-0.9,1.9-1.6c0-0.9-1.2-0.4-1.6-0.2
			c-0.4,0.2-1.4,0.8-1.1,1.5C1758.2-330.8,1758.5-330.7,1758.8-330.8z M1751.5-317.9c0.6,0.1,0.9-0.4,1.1-1c0.3-0.5,0.6-1.3,0.1-1.6
			c-0.7-0.6-1.3,0.4-1.5,1C1751.1-319.1,1750.8-318,1751.5-317.9z M1747.9-319.3c0.4,0.1,0.7-0.1,1-0.3c0.5-0.4,1.1-1.2,0.9-1.8
			c-0.3-0.9-1.7,0.2-2,0.7C1747.5-320.4,1747.3-319.5,1747.9-319.3z M1756-332.7c0.6,0,0.9-0.4,1-0.9l0,0c0.1-0.3,0.1-0.5-0.1-0.7
			c-0.4-0.5-1.1-0.3-1.3,0.2c-0.1,0.3-0.2,0.8-0.1,1.1C1755.6-332.6,1755.5-332.6,1756-332.7z M1753-332.3c0.7-0.1,0.7-1.1,0.5-1.7
			c0,0,0,0,0,0c-0.1-0.2-0.2-0.4-0.4-0.5c-0.7-0.6-1.3,0.1-1.3,0.9C1751.9-333.1,1752.3-332.2,1753-332.3z M1745.9-322.5
			c0.4-0.1,0.7-0.2,1-0.4c0.7-0.2,1.7-1,0.5-1.3c-0.7-0.2-2.8,0.2-3,1.1C1744.3-322.3,1745.4-322.3,1745.9-322.5z M1756.6-319.5
			c0-0.4-0.1-0.8-0.3-1.1c-0.1-0.7-0.8-1.8-1.3-0.7c-0.3,0.7-0.1,2.8,0.7,3.1C1756.6-317.9,1756.6-319,1756.6-319.5z"/>
	</g>
</g>
<g>
	<path fill="#89B03D" d="M1608.8-220.5c5.7,0.7,9,7,4.2,8.4c5.1,2,5.7,8.4-0.2,9.2c-8.5,1.2-12.1-5.4-10.7-8.2
		c0.1-0.1,0.2-0.3,0.3-0.5l-6.8,0.1l-0.8-3.8c5.3-0.1,13.7-0.4,17.1-0.4c3.4-0.1,0.1-3.5-2.8-3.8L1608.8-220.5z M1603.9-211.5
		c-2.7,2.4,1,5,5.8,4.9c5.3,0,7.5-2.5,1.4-5.1c-0.1,0-0.3,0-0.5,0.1L1603.9-211.5z"/>
	<path fill="#89B03D" d="M1606.7-230.1c4.5,1.3,6,3.3,6.6,6.5c1,5.3-5.6,6.8-10.3,5.2c-3.7-1.4-5.2-4.8-4.3-6.7
		c0.8-1.7,2.9-2.2,4.7-1.7c2.6,0.7,4,2.9,4.4,5.3c1.3-0.3,2.8-1.2,3.1-2.5c0.5-2.4-1.6-4.2-4.1-5L1606.7-230.1z M1606.6-221.4
		c-0.8-4.4-6.2-3.7-6.6-2.9c-0.3,0.6,0.5,1.7,2.3,2.4c1,0.4,2.4,0.6,4,0.6C1606.4-221.4,1606.6-221.4,1606.6-221.4z"/>
	<path fill="#89B03D" d="M1603-246.7c5.5,0.8,8.8,7,4.1,8.4c5,2,5.7,8.4-0.2,9.2c-4.5,0.6-9.5-0.6-10.8-5.5l-1.6-7l1.1,0
		c4.4-0.1,7-0.1,10.3-0.1c3.3-0.1,0-3.6-2.8-3.9L1603-246.7z M1598.1-237.7c-2.7,2.4,1,5,5.7,4.9c5.2-0.1,7.4-2.5,1.4-5.1
		L1598.1-237.7z"/>
	<path fill="#FFFFFF" d="M1589-259.6c-1.3-0.2-3.6-0.3-3.5,1.9c0.1,0.8,0.6,1.6,1.3,2.3c0.7,0.7,2.1,1,2.9,0.7
		c0.8-0.3,0.9-0.4,1.4-1.1c0.5-0.6,1-1.7,1.3-2.7c0.4-1.1,0.9-2.3,1.4-3.2c0.5-1,1.1-1.7,2.2-2.2c8.2-3.7,13.7,10.7,7.3,13.2
		c-2,0.8-4.5,0.4-6-1.5l2-3.1c1.3,2,2.9,2.5,3.9,1.9c1.2-0.7,1.2-3.1-0.2-4.8c-0.6-0.9-1.7-1.6-3.1-1.7c-1.6-0.2-2.5,1.3-3.1,2.5
		c-0.5,1.3-0.8,2-1.3,3.1c-0.5,1.1-1.4,2.3-2.2,3c-2.2,1.9-5.3,2-7.4-0.5c-1.2-1.4-1.9-3.1-2.1-4.9c-0.3-2.5,0.5-4.8,2.4-6
		c0.9-0.6,2.2-0.8,3.5-0.9L1589-259.6z"/>
	<path fill="#FFFFFF" d="M1590.1-280c1.2,0.9,2.3,1.8,3,2.8c6.5-0.6,10.1,4,9.6,7.5c-0.4,2.8-2.5,4.3-5.1,4.6
		c-2.8,0.3-5.9-0.7-8-2.9c-2.1-2.2-3.1-6.1-0.2-8.1c0.5-0.3,1.1-0.6,1.9-0.8c-0.5-1-1.3-2-2.1-2.8L1590.1-280z M1594.4-274
		c0,0.9-0.2,1.8-0.7,2.9l-2.3-1c0.3-0.4,0.4-0.9,0.5-1.4c-1.9,0.9-3.4,3.1-0.8,4.1c2.3,0.9,8.6,0.8,9.5-2c0.5-1.5-1.3-3.1-6-2.8
		C1594.4-274,1594.4-274,1594.4-274z"/>
	<path fill="#FFFFFF" d="M1593.8-288.1c6.1,0.8,9.4,8.3,1.7,8.5l-15.2,0.4l-0.8-3.7c4.9-0.1,13.9-0.3,17.3-0.3
		c3.3-0.1,0.1-3.4-2.7-3.7L1593.8-288.1z"/>
	<path fill="#FFFFFF" d="M1590.6-301.5c5.4,0.6,8.6,6.1,4.4,7.7c4.3,2.1,5.5,7.2-1.1,7.5l-9.3,0.2l-0.8-3.8
		c4.7-0.2,8.2-0.2,11.4-0.3c3.2-0.1,0.7-2.4-1.8-3.1c-0.3,0-0.6,0-10.2,0.3l-0.8-3.7c4.7-0.2,8-0.3,11.3-0.4
		c3.3-0.1,0.2-3.1-2.7-3.3L1590.6-301.5z"/>
	<path fill="#FFFFFF" d="M1589-308.6c6.4,0.9,9.8,8.7,1.9,8.9l-7.5,0.2l0.4,1.7l-1.8-0.3l-0.3-1.3l-3.8,0.1l-1.7-3.8l4.6-0.1
		l-0.5-2.2l1.9,0.4l0.4,1.7l9.6-0.2c3.4-0.1,0.1-3.5-2.8-3.8L1589-308.6z"/>
	<path fill="#FFFFFF" d="M1587.1-316.5c6.5,0.8,10,8.8,1.9,9l-9.2,0.1l-0.9-3.8c4.9-0.2,7.9-0.2,11.3-0.3c3.5-0.1,0.1-3.7-2.9-4
		L1587.1-316.5z M1577.5-307.7c-0.3,0.5-0.8,0.8-1.4,0.9c-0.6,0.1-1.2,0-1.7-0.3c-0.5-0.3-0.8-0.8-1-1.4c-0.1-0.6,0-1.2,0.3-1.7
		c0.3-0.5,0.8-0.9,1.4-1c0.6-0.1,1.2,0,1.7,0.3c0.5,0.3,0.8,0.8,1,1.4C1577.9-308.8,1577.8-308.2,1577.5-307.7z"/>
	<path fill="#FFFFFF" d="M1579.1-328.9c1.2,0.9,2.3,1.8,3,2.8c6.5-0.6,10.1,4,9.6,7.5c-0.4,2.8-2.5,4.3-5.1,4.6
		c-2.8,0.3-5.9-0.7-8-2.9c-2.1-2.2-3.1-6.1-0.2-8.1c0.5-0.3,1.1-0.6,1.9-0.8c-0.5-1-1.3-2-2.1-2.8L1579.1-328.9z M1583.3-323
		c0,0.9-0.2,1.8-0.7,2.9l-2.3-1c0.3-0.4,0.4-0.9,0.5-1.4c-1.9,0.9-3.4,3.1-0.8,4.1c2.3,0.9,8.6,0.8,9.5-2c0.5-1.5-1.3-3.1-6-2.8
		C1583.4-323,1583.4-323,1583.3-323z"/>
	<path fill="#FFFFFF" d="M1580.7-345.1c6.9,1,9.3,8.3,1.8,8.8c-2,0-4,0.1-6.1,0.2c-3.3,0.1-0.2,3.3,2.6,3.8l9.6-0.3l0.9,3.9
		l-14.5,0.3l-0.9-3.8l2.2-0.1c-4-2.2-5.1-7.5,1.4-7.8c3.6-0.1,2.5,0,6.1-0.2c3.5-0.2,0.1-3.5-2.8-3.8L1580.7-345.1z"/>
	<path fill="#FFFFFF" d="M1573.7-351c-0.9-0.2-2.6-0.4-2.3,1.3c0,0.6,0.4,1.4,0.9,1.8c0.6,0.8,1.5,1.1,2,0.8c0.6-0.2,0.7-0.3,1-0.8
		c0.3-0.6,0.6-1.4,0.9-2.3c0.2-0.8,0.5-1.7,0.8-2.5c0.4-0.7,0.8-1.3,1.4-1.7c5.4-2.7,9.6,9.2,5.3,11.1c-1.3,0.5-3,0-4.1-1.5l1.3-2.4
		c0.9,1.6,2,2.2,2.7,1.6c0.8-0.6,0.7-2.5-0.2-3.9c-0.6-0.8-1.3-1.4-2.2-1.6c-1-0.2-1.6,1-2,1.9c-0.3,1.1-0.4,1.7-0.8,2.5
		c-0.3,0.8-0.8,1.8-1.4,2.3c-1.3,1.5-3.5,1.5-5-0.7c-0.9-1.2-1.4-2.6-1.5-4c-0.4-2.1,0.1-3.9,1.4-4.8c0.6-0.4,1.5-0.6,2.4-0.6
		L1573.7-351z"/>
	<path fill="#89B03D" d="M1601.6-198.5c10.2-0.2,18.7,1.3,18.8,3.1c0.1,1.8-7.8,3.6-17.9,4.9c-10.1,1.3-18.1,2.9-18.7-2.8
		C1583.2-198.3,1591.5-198.3,1601.6-198.5z"/>
	<g>
		
			<linearGradient id="SVGID_34_" gradientUnits="userSpaceOnUse" x1="602.5273" y1="1491.358" x2="613.684" y2="1480.2014" gradientTransform="matrix(-0.2195 -0.9756 0.9756 -0.2195 266.9902 722.9083)">
			<stop  offset="0" style="stop-color:#FFA300"/>
			<stop  offset="0.1395" style="stop-color:#FF9D00"/>
			<stop  offset="0.3279" style="stop-color:#FF8C00"/>
			<stop  offset="0.4847" style="stop-color:#FF7800"/>
			<stop  offset="0.5785" style="stop-color:#FF8B00"/>
			<stop  offset="0.7686" style="stop-color:#FFBC00"/>
			<stop  offset="1" style="stop-color:#FFFF00"/>
		</linearGradient>
		<path fill="url(#SVGID_34_)" d="M1588.3-195.7c-0.6,2.7-4,6.9-7,4.3c-1.6-1.4-2-3.8-1.4-5.8c0.8-2.3,2.7-3.7,4.9-3.5
			C1587.8-200.6,1588.9-198.6,1588.3-195.7z M1578.1-199c-0.5-0.3-2.1-0.7-2.6-0.2c-0.2,0.2-0.2,0.6,0,0.9c0.3,0.1,0.7,0.2,1.1,0.3
			c0.5,0.1,1.1,0.4,1.5,0.4C1578.9-197.8,1578.7-198.7,1578.1-199z M1576.7-196c-0.6,0.1-1.4,0-1.4,0.8c0,0.3,0.1,0.5,0.2,0.6
			c0.9,0.1,2,0.2,2.5-0.4C1578.8-195.9,1577.3-196.1,1576.7-196z M1578.4-192.9c-0.8,0.1-1.5,0.6-1.9,1.2l0,0
			c-0.1,0.2-0.3,0.4-0.4,0.6l0,0c0,0.1,0,0.1,0,0.2c0.2,1.3,2-0.4,2.4-0.8C1579-192,1579.6-193,1578.4-192.9z M1580.2-190.3
			C1580.1-190.3,1580.1-190.3,1580.2-190.3C1580.1-190.2,1580.1-190.2,1580.2-190.3c-0.6,0.5-1.6,1.5-1.3,2.1c0.3,0.9,1.3,0,1.5-0.3
			c0.3-0.4,1.1-1.3,0.6-1.8C1580.7-190.5,1580.4-190.5,1580.2-190.3z M1582.8-204.9c-0.6,0.1-0.7,0.7-0.7,1.3
			c-0.1,0.6-0.1,1.4,0.4,1.6c0.9,0.3,1.1-0.8,1.1-1.4C1583.5-203.9,1583.5-205,1582.8-204.9z M1586.7-204.7c-0.4,0-0.7,0.3-0.8,0.6
			c-0.3,0.5-0.6,1.5-0.2,2c0.6,0.7,1.6-0.7,1.7-1.3C1587.4-203.9,1587.3-204.8,1586.7-204.7z M1583.5-189.5
			c-0.6,0.2-0.7,0.7-0.7,1.2l0,0c0,0.3,0.1,0.5,0.3,0.7c0.5,0.4,1.1-0.1,1.2-0.6c0-0.3-0.1-0.8-0.3-1.1
			C1583.8-189.6,1583.9-189.6,1583.5-189.5z M1586.1-190.7c-0.6,0.3-0.3,1.2,0.1,1.7c0,0,0,0,0,0c0.1,0.2,0.3,0.3,0.5,0.4
			c0.9,0.3,1.2-0.5,1-1.3C1587.4-190.4,1586.8-191.1,1586.1-190.7z M1589.6-202.4c-0.4,0.2-0.6,0.5-0.8,0.8c-0.6,0.4-1.3,1.5,0,1.4
			c0.8,0,2.5-1.1,2.4-2C1591-203.1,1590-202.7,1589.6-202.4z M1578.5-201.7c0.2,0.4,0.4,0.7,0.6,0.9c0.4,0.6,1.3,1.4,1.4,0.2
			c0.1-0.8-0.8-2.6-1.7-2.7C1578-203.2,1578.3-202.2,1578.5-201.7z"/>
	</g>
</g>
<g>
	<g>
		<path fill="#88AF3F" d="M196.1,316.1c-10.1,28.1-45.4,38-47.3,11.6c-15.7,23.8-49,19.7-46.4-11.6c3.8-45.1,41-55.7,53.6-45.1
			c0.6,0.6,1.2,1.3,1.9,2.2l7-35.1h20c-5.3,27.2-13.6,70.6-17.2,88c-3.4,17.4,17.8,4.5,22.6-10H196.1z M156.3,280.8
			c-9-16.4-26.4-0.4-31.3,23.8c-5.9,27.1,4,41.2,24.4,13.2c0-0.7,0.1-1.8,0.3-2.5L156.3,280.8z"/>
		<path fill="#88AF3F" d="M246.9,316.7c-11.4,21.4-23.5,26.9-40.2,26.5c-27.7-0.9-28.2-36.5-14.5-58.5
			c11.2-17.6,30.2-21.3,38.6-14.1c7.5,6.1,7.6,17.4,3.2,26.2c-6.6,12.4-18.9,17-31.6,16.5c0.1,7.1,2.8,15.5,9.1,18.6
			c11.3,5.4,23.2-3.6,30.1-15.2H246.9z M202.9,306.3c23.2,0.7,25.8-27.5,22.2-30.5c-2.9-2.2-9.4,0.6-14.7,9.1
			c-3.1,4.8-5.7,11.5-7.3,19.8C203,305.2,202.9,305.8,202.9,306.3z"/>
		<path fill="#88AF3F" d="M334.7,316.8c-10.1,27.4-45.4,37.1-47.3,11.5c-15.6,23.5-49,19.2-46.4-11.6c2.1-24,13.7-47.9,39.9-48.8
			h37.1l-1.2,5.7c-4.6,22.8-7.6,36-11,53.2c-3.2,17,18.2,4.2,23-9.8H334.7z M294.9,281.6c-9-16.5-26.3-0.4-31.4,23.7
			c-5.6,26.9,4.1,40.9,24.4,13.3L294.9,281.6z"/>
		<path fill="#676767" d="M416,260.1c2.5-6.4,5.6-18.3-5.6-20c-4.1-0.3-9,1-13.1,3.9c-4.4,3-7.5,9.5-6.9,14.1c0.6,4.6,1,5.2,3.7,8.6
			c2.3,3,7.3,7,12,10c5.1,3.6,10.6,7,14.7,11c4.3,3.6,7.5,7.9,8.7,13.7c9.4,46.5-69.4,57.9-75,21.9c-1.6-11,3.2-23.7,14.2-29.2
			l13.5,14c-11.3,4.3-16,11.8-13.9,17.6c2.3,7,14.5,9.5,24.7,4.6c5.3-2.2,10.1-7,12.3-14c2.8-7.7-3.7-14.3-9-18.6
			c-5.7-4.2-9.1-6.6-13.9-10.1c-4.8-4-10-9.7-12.6-14.6c-7.2-13.3-4.3-29.5,11-37.4c8.5-4.3,17.6-6,27-5.1
			c13.1,1.5,23.8,8,27.7,19.4c1.8,5.5,1.8,12.1,0.3,19.1L416,260.1z"/>
		<path fill="#676767" d="M517.4,289c-5.9,5.4-11.7,9.5-17.5,12.2c-4.3,33.9-31.6,47-48.9,40.3c-13.6-5.1-18.6-17.9-17.2-31.6
			c1.6-14.4,10.1-29.5,23.8-37.4c13.7-8,34.1-8.8,41.1,8.5c1.2,2.8,1.9,6.4,1.9,10.4c5.9-1.5,11.6-4.3,16.3-7.6L517.4,289z
			 M482.3,304c-4.7-0.9-9.1-3-14.1-6.8l7.6-10.6c1.9,1.8,4.1,3.1,6.3,4c-2.3-11-11.6-20.8-20-9.1c-7.3,10.7-13.9,43.3-0.9,50.8
			c7,4.2,17.2-3.1,21-27.7C482.3,304.5,482.3,304.2,482.3,304z"/>
		<path fill="#676767" d="M554,317.3c-11,30.5-52.4,38.7-44.6-1l15.4-78.2h19.8c-5,25.3-14.5,71.6-17.9,88.7
			c-3.2,17,17.2,4.3,21.7-9.5H554z"/>
		<path fill="#676767" d="M625.2,316.5c-9.4,27.1-40.5,37.1-44,13.4c-15.6,19.5-42.6,20-36.4-14.3l9.4-47.8h20
			c-4.5,24.3-8.2,42-11.2,58.5c-2.9,16.4,11.4,6.6,17.9-5.8c0.3-1.5,0.6-3.1,9.8-52.7h19.7c-4.4,24.3-7.6,41.2-10.7,58.5
			c-3.1,17.3,15.3,4.3,19.8-9.8H625.2z"/>
		<path fill="#676767" d="M663,316.2c-11.7,31.9-55,40.3-46.8-0.6l7.8-38.7h-8.8l3.7-9.1h7l4-19.4l20.8-4.2l-4.5,23.5H658l-4.3,9.1
			h-9.2l-9.8,49.4c-3.4,17.4,17.5,4.5,22.5-10.1H663z"/>
		<path fill="#676767" d="M704.9,315.9c-11.6,32.2-55.9,40.8-47.7-0.9l9.7-47.2h20.3c-4.7,25.2-8.1,40.5-11.4,58.1
			c-3.4,17.9,18.5,4.6,23.5-10H704.9z M671.5,256.2c-2.1-2.2-3.1-4.9-3.1-8.3c0.1-3.3,1.2-6,3.4-8.3c2.3-2.2,5-3.4,8.4-3.4
			s5.9,1.2,8.1,3.4c2.3,2.4,3.5,5.1,3.5,8.3c0,3.4-1.3,6.1-3.7,8.3c-2.3,2.2-5.1,3.3-8.4,3.3C676.5,259.5,673.7,258.5,671.5,256.2z"
			/>
		<path fill="#676767" d="M777.1,289c-5.9,5.4-11.7,9.5-17.5,12.2c-4.3,33.9-31.6,47-48.9,40.3c-13.6-5.1-18.6-17.9-17.2-31.6
			c1.6-14.4,10.1-29.5,23.8-37.4c13.7-8,34.1-8.8,41.1,8.5c1.2,2.8,1.9,6.4,1.9,10.4c5.9-1.5,11.6-4.3,16.3-7.6L777.1,289z M742,304
			c-4.7-0.9-9.1-3-14.1-6.8l7.6-10.6c1.9,1.8,4.1,3.1,6.3,4c-2.3-11-11.6-20.8-20-9.1c-7.3,10.7-13.9,43.3-0.9,50.8
			c7,4.2,17.2-3.1,21-27.7C742,304.5,742,304.2,742,304z"/>
		<path fill="#676767" d="M856.9,316.2c-12.9,34.2-52.7,38-46.2-0.9c2.1-10.4,4-20.8,5.9-31.3c3.2-17.1-16.6-4.9-22,8.8l-9.2,49.4
			h-20.8l14.8-74.4h20.1l-2.2,11.2c15.9-18.2,43.7-17.6,37.6,15.9c-3.5,18.5-2.6,13.1-5.9,31.3c-3.2,18.3,17.6,4.5,22.3-10H856.9z"
			/>
		<path fill="#676767" d="M894.2,287.1c2.2-4.5,4.7-12.7-4.1-13.4c-3.2-0.6-7.6,0.4-10.3,2.5c-4.6,1.9-7,6.3-6.5,9.2
			c0.4,3.3,0.9,3.7,2.8,5.8c2.5,2.2,6.2,4.8,10.6,7.1c3.8,1.9,8.2,4.6,11.9,7.1c3.2,2.7,5.6,5.5,6.9,9.2c7.6,31-57.4,38.6-61.8,14.3
			c-1.2-7.1,3.2-15.3,12-19.2l10.9,9.4c-9.1,2.8-13.2,7.7-11.3,11.8c1.9,4.9,11.7,6.4,20,3.3c4.7-2.1,8.5-5.1,10.4-9.5
			c2.2-5.1-3.1-9.4-7.2-12.5c-5.1-3-8.1-4.2-11.7-7c-3.8-2.2-8.2-6.3-10.3-9.8c-6.2-8.5-3.8-19.5,9-24.7c6.9-3.1,14.5-4,22.2-3.3
			c11,0.6,19.4,4.9,22.9,12.7c1.5,3.6,1.5,8.3,0.3,13L894.2,287.1z"/>
		<path fill="#88AF3F" d="M92.9,254.1c-10.7,52.7-27.7,94.1-37,92.5c-9.3-1.6-9.1-44-4.2-97.4c4.9-53,5.7-96.2,35.3-92.7
			C113.1,159.6,103.5,202,92.9,254.1z"/>
		<g>
			
				<linearGradient id="SVGID_35_" gradientUnits="userSpaceOnUse" x1="214.1725" y1="-140.0341" x2="277.2003" y2="-203.062" gradientTransform="matrix(0.6899 0.7239 -0.7239 0.6899 -191.4222 100.2289)">
				<stop  offset="0" style="stop-color:#F9A11B"/>
				<stop  offset="0.1416" style="stop-color:#F89B1C"/>
				<stop  offset="0.3328" style="stop-color:#F68A1E"/>
				<stop  offset="0.4847" style="stop-color:#F37721"/>
				<stop  offset="0.5925" style="stop-color:#F38A1F"/>
				<stop  offset="0.8093" style="stop-color:#F4BA19"/>
				<stop  offset="1" style="stop-color:#F5EA14"/>
			</linearGradient>
			<path fill="url(#SVGID_35_)" d="M94.1,183c-13-6.3-30.2-28.6-13.9-41c8.9-6.8,21.3-5.8,30.8-0.3c10.5,6.9,15.4,18.2,12.2,29.1
				C119.4,186.1,107.9,189.2,94.1,183z M122.4,134.4c2-2.1,5.7-9.9,3.9-13c-0.8-1.3-2.6-1.5-4.4-1c-1.1,1.5-1.7,3.5-2.6,5.1
				c-1.1,2.2-3.4,4.9-3.5,7.5C115.4,137,120,136.9,122.4,134.4z M108.8,123.9c0.4-3.4,1.4-7.1-2.4-8.2c-1.3-0.4-2.4-0.2-3.4,0.5
				c-1.6,4.4-3.4,9.8-0.8,13.4C105.7,134.5,108.5,127.2,108.8,123.9z M91,129c0.6-3.9-1.3-8.2-4.1-11.4l0-0.1
				c-0.9-1-1.8-1.9-2.8-2.6l0,0c-0.4-0.1-0.7-0.2-1.1-0.3c-7-0.4-0.2,10.6,1.3,13.2C86.2,131,90.3,135,91,129z M76,134.9
				c0-0.1-0.1-0.2-0.1-0.3c0,0,0,0,0,0c-1.5-3.2-5.5-9.3-9.1-8.9c-4.7,0.4-1.5,6.4-0.2,8.3c1.4,2,5.2,7,8.2,5
				C76.5,137.9,76.7,136.4,76,134.9z M146.7,165.2c0.3-3.4-2.6-4.6-5.8-5.3c-3-1.2-6.8-2.3-8.4,0.3c-2.5,4.1,2.7,6.6,5.9,7.1
				C140.8,167.9,146.3,169,146.7,165.2z M141.4,184.8c0.4-2.1-0.7-3.7-2.3-4.9c-2.1-2.3-7.1-5-9.8-3.5c-4.5,2.2,1.9,9,4.8,10.2
				C136.4,187.6,141,187.9,141.4,184.8z M68.2,150.9c-0.3-3-2.6-4.2-5.2-4.9l-0.1,0c-1.4-0.2-2.7,0-3.7,0.8
				c-2.6,2.3-0.9,5.8,1.8,6.8c1.6,0.5,4.2,0.6,5.8-0.1C68.5,152.8,68.5,153.1,68.2,150.9z M71.6,165.9c-0.9-3.4-6-2.7-8.8-1.7
				c0,0,0,0,0,0c-1,0.5-1.8,1.2-2.5,2.2c-2.8,4.3,1.1,6.9,5.3,6.3C68.3,172.1,72.6,169.6,71.6,165.9z M126.6,197
				c-0.7-2.1-1.6-3.7-2.9-5.2c-1.5-3.4-6.1-8.2-7.1-1.8c-0.8,4,2.8,14.2,7.5,14.8C128.5,205.2,127.4,199.6,126.6,197z M135.5,139.7
				c-2.1,0.4-3.8,1.2-5.4,2.3c-3.5,1.1-8.7,5.1-2.7,6.9c3.8,1.3,14.3-1.1,15.4-5.7C143.8,138.7,138.2,139.1,135.5,139.7z"/>
		</g>
	</g>
	<g>
		<path fill="#F5891F" d="M483.7,430.5c-4.8,0-8.6-1.3-11.3-3.8s-4-6-4-10.6c0-4,0.8-7.6,2.5-10.8c1.7-3.2,4-5.6,7.1-7.4
			c3.1-1.7,6.6-2.6,10.5-2.6c3.5,0,6.4,0.7,8.7,2c2.3,1.4,3.8,3.4,4.7,6l-4.6,1.3c-0.6-1.9-1.7-3.2-3.2-4.2
			c-1.5-0.9-3.5-1.4-5.9-1.4c-3.1,0-5.7,0.7-8,2.1s-4.1,3.4-5.3,5.9c-1.2,2.6-1.8,5.5-1.8,8.9c0,3.4,0.9,6,2.8,7.9
			c1.9,1.9,4.5,2.8,7.9,2.8c2.2,0,4.3-0.3,6.3-1c2-0.6,3.7-1.6,5.2-2.8l1.2-6.1h-10l0.8-3.9h14.2l-2.4,12c-2.2,1.9-4.6,3.3-7.1,4.2
			C489.5,430,486.7,430.5,483.7,430.5z"/>
		<path fill="#F5891F" d="M510.1,417.8c-0.1,0.6-0.2,1.5-0.2,2.7c0,2.1,0.5,3.8,1.6,4.9c1.1,1.1,2.7,1.7,4.8,1.7
			c1.5,0,2.9-0.4,4.2-1.2c1.3-0.8,2.2-1.8,2.9-3.2l3.3,1.5c-1.2,2.1-2.6,3.7-4.4,4.6s-4,1.5-6.5,1.5c-3.2,0-5.7-0.9-7.5-2.7
			s-2.7-4.3-2.7-7.6c0-3.2,0.6-6.1,1.7-8.7c1.1-2.6,2.7-4.6,4.8-6s4.4-2.1,6.9-2.1c3.3,0,5.8,0.8,7.6,2.5c1.8,1.7,2.7,4,2.7,7
			c0,1.7-0.2,3.3-0.6,5H510.1z M524.9,414.5l0.1-1.7c0-2-0.5-3.5-1.5-4.6c-1-1.1-2.5-1.6-4.4-1.6c-2.1,0-3.9,0.7-5.4,2.1
			c-1.5,1.4-2.5,3.3-3.1,5.9H524.9z"/>
		<path fill="#F5891F" d="M537.7,430.5c-1.4,0-2.4-0.4-3.2-1.2s-1.2-1.9-1.2-3.3c0-0.9,0.1-1.9,0.4-3.1l3-15.8h-3l0.6-3.2h3l2.5-5.9
			h2.9l-1.1,5.9h4.8l-0.6,3.2H541l-3,15.6c-0.2,1-0.3,1.7-0.3,2.3c0,1.4,0.7,2.1,2.1,2.1c0.7,0,1.5-0.1,2.4-0.3l-0.5,3.2
			C540.2,430.3,538.8,430.5,537.7,430.5z"/>
		<path fill="#F5891F" d="M559,430l5-26.2h4.3l-5,26.2H559z M565.1,398.3l0.8-4.2h4.3l-0.8,4.2H565.1z"/>
		<path fill="#F5891F" d="M578.6,430.5c-2.5,0-4.4-0.8-5.8-2.3c-1.4-1.5-2.1-3.6-2.1-6.3c0-3.3,0.5-6.4,1.5-9.5
			c1-3.1,2.4-5.3,4.1-6.8s4-2.2,6.8-2.2c2,0,3.5,0.4,4.8,1.3s2.1,2,2.6,3.5h0.1l0.7-3.9l2-10.1h4.3l-5.8,30.5
			c-0.5,2.3-0.8,4.1-0.9,5.4h-4.1c0-0.8,0.2-2.1,0.5-3.9h-0.1c-1.2,1.5-2.4,2.6-3.7,3.3S580.5,430.5,578.6,430.5z M579.9,427.1
			c1.6,0,2.9-0.3,4-1c1.1-0.7,2.1-1.6,2.8-3c0.8-1.3,1.4-3,1.8-4.9c0.4-2,0.7-3.7,0.7-5.3c0-2-0.5-3.6-1.5-4.7s-2.4-1.7-4.2-1.7
			c-1.9,0-3.5,0.6-4.6,1.8s-2,3.1-2.7,5.7c-0.7,2.7-1,5-1,7.1c0,2,0.4,3.5,1.1,4.5S578.3,427.1,579.9,427.1z"/>
		<path fill="#F5891F" d="M602.3,417.8c-0.1,0.6-0.2,1.5-0.2,2.7c0,2.1,0.5,3.8,1.6,4.9c1.1,1.1,2.7,1.7,4.8,1.7
			c1.5,0,2.9-0.4,4.2-1.2c1.3-0.8,2.2-1.8,2.9-3.2l3.3,1.5c-1.2,2.1-2.6,3.7-4.4,4.6c-1.8,1-4,1.5-6.5,1.5c-3.2,0-5.7-0.9-7.5-2.7
			s-2.7-4.3-2.7-7.6c0-3.2,0.6-6.1,1.7-8.7c1.1-2.6,2.7-4.6,4.8-6s4.4-2.1,6.9-2.1c3.3,0,5.8,0.8,7.6,2.5c1.8,1.7,2.7,4,2.7,7
			c0,1.7-0.2,3.3-0.6,5H602.3z M617.2,414.5l0.1-1.7c0-2-0.5-3.5-1.5-4.6c-1-1.1-2.5-1.6-4.4-1.6c-2.1,0-3.9,0.7-5.4,2.1
			s-2.5,3.3-3.1,5.9H617.2z"/>
		<path fill="#F5891F" d="M645.5,430.2c-1.5,0-2.6-0.3-3.2-0.9c-0.7-0.6-1-1.5-1-2.8l0.1-1.5h-0.1c-1.3,2-2.7,3.5-4.1,4.3
			c-1.4,0.8-3.1,1.2-5.1,1.2c-2.2,0-4-0.7-5.4-2s-2.1-3.1-2.1-5.2c0-3,1.1-5.2,3.2-6.8c2.1-1.5,5.5-2.3,10.1-2.4l5.5-0.1
			c0.3-1.6,0.5-2.6,0.5-3.1c0-1.5-0.4-2.6-1.3-3.3c-0.8-0.7-2-1.1-3.5-1.1c-1.9,0-3.3,0.3-4.3,1c-1,0.7-1.7,1.7-2.1,3.1l-4.2-0.7
			c0.7-2.4,2-4.1,3.7-5.2s4.2-1.6,7.1-1.6c2.7,0,4.9,0.6,6.4,1.9c1.6,1.3,2.4,3,2.4,5.2c0,1-0.2,2.3-0.5,3.8l-1.8,9.1
			c-0.2,0.8-0.3,1.5-0.3,2.1c0,1.2,0.6,1.8,1.9,1.8c0.4,0,0.9-0.1,1.4-0.2l-0.3,2.7C647.5,430.1,646.5,430.2,645.5,430.2z
			 M642.7,417l-4.7,0.1c-1.9,0-3.4,0.2-4.5,0.5c-1.1,0.3-1.9,0.7-2.5,1.1c-0.6,0.5-1.1,1-1.4,1.7s-0.5,1.6-0.5,2.6
			c0,1.2,0.4,2.2,1.2,3s1.8,1.1,3,1.1c1.5,0,2.9-0.3,4.2-1c1.2-0.7,2.3-1.5,3.1-2.6s1.3-2.2,1.6-3.5L642.7,417z"/>
		<path fill="#88AF3F" d="M673.6,440.3c-5.4,0-8.5-2-9.4-6.1l3.9-1c0.6,2.5,2.4,3.8,5.6,3.8c2.3,0,4-0.6,5.2-1.8
			c1.2-1.2,2.1-3.1,2.6-5.8l0.8-4.2h0c-1,1.4-1.9,2.5-2.6,3.1c-0.8,0.6-1.6,1.1-2.6,1.5c-0.9,0.3-2,0.5-3.3,0.5
			c-2.4,0-4.4-0.8-5.9-2.4c-1.5-1.6-2.2-3.8-2.2-6.4c0-2.1,0.3-4.5,0.9-6.9c0.6-2.5,1.4-4.5,2.4-6.2c1-1.6,2.3-2.9,3.8-3.6
			s3.2-1.2,5.2-1.2c1.9,0,3.5,0.5,4.9,1.4c1.3,0.9,2.2,2.1,2.6,3.6h0c0.1-0.6,0.3-1.5,0.6-2.6c0.3-1.1,0.5-1.8,0.5-1.9h4.1l-0.5,2
			l-0.7,3.4l-3.8,20c-0.8,3.9-2.1,6.7-4.1,8.4S677,440.3,673.6,440.3z M670.3,421c0,2,0.4,3.4,1.3,4.5c0.8,1,2.1,1.5,3.7,1.5
			c1.7,0,3.3-0.6,4.7-1.9s2.5-3,3.3-5.2c0.8-2.2,1.2-4.5,1.2-6.9c0-2-0.5-3.6-1.5-4.7c-1-1.1-2.4-1.7-4.2-1.7
			c-1.4,0-2.6,0.3-3.6,0.9s-1.8,1.5-2.4,2.8s-1.2,3-1.6,5.1C670.5,417.5,670.3,419.4,670.3,421z"/>
		<path fill="#88AF3F" d="M697.4,417.8c-0.1,0.6-0.2,1.5-0.2,2.7c0,2.1,0.5,3.8,1.6,4.9s2.7,1.7,4.8,1.7c1.5,0,2.9-0.4,4.2-1.2
			c1.3-0.8,2.2-1.8,2.9-3.2l3.3,1.5c-1.2,2.1-2.6,3.7-4.4,4.6s-4,1.5-6.5,1.5c-3.2,0-5.7-0.9-7.5-2.7s-2.7-4.3-2.7-7.6
			c0-3.2,0.6-6.1,1.7-8.7c1.1-2.6,2.7-4.6,4.8-6s4.4-2.1,6.9-2.1c3.3,0,5.8,0.8,7.6,2.5c1.8,1.7,2.7,4,2.7,7c0,1.7-0.2,3.3-0.6,5
			H697.4z M712.3,414.5l0.1-1.7c0-2-0.5-3.5-1.5-4.6c-1-1.1-2.5-1.6-4.4-1.6c-2.1,0-3.9,0.7-5.4,2.1c-1.5,1.4-2.5,3.3-3.1,5.9H712.3
			z"/>
		<path fill="#88AF3F" d="M725,430.5c-1.4,0-2.4-0.4-3.2-1.2s-1.2-1.9-1.2-3.3c0-0.9,0.1-1.9,0.4-3.1l3-15.8h-3l0.6-3.2h3l2.5-5.9
			h2.9l-1.1,5.9h4.8l-0.6,3.2h-4.8l-3,15.6c-0.2,1-0.3,1.7-0.3,2.3c0,1.4,0.7,2.1,2.1,2.1c0.7,0,1.5-0.1,2.4-0.3l-0.5,3.2
			C727.5,430.3,726.2,430.5,725,430.5z"/>
		<path fill="#88AF3F" d="M767.2,422.3c0,2.6-1,4.6-3,6c-2,1.4-4.8,2.1-8.5,2.1c-2.8,0-5-0.5-6.6-1.4c-1.6-0.9-2.8-2.4-3.4-4.5
			l3.5-1.4c0.5,1.4,1.3,2.5,2.4,3.1c1.1,0.6,2.6,1,4.4,1c2.3,0,4-0.4,5.2-1.2c1.2-0.8,1.8-1.9,1.8-3.4c0-1-0.4-1.8-1.2-2.5
			s-2.5-1.4-5.1-2.2c-2-0.7-3.6-1.3-4.6-2s-1.8-1.4-2.3-2.3c-0.5-0.9-0.8-1.9-0.8-3c0-2.3,0.9-4.1,2.8-5.4s4.4-1.9,7.8-1.9
			c5.6,0,8.8,2.1,9.5,6.2l-3.9,0.6c-0.3-1.3-1-2.2-2-2.8s-2.3-0.8-3.9-0.8c-2,0-3.5,0.3-4.5,1s-1.6,1.5-1.6,2.7
			c0,0.7,0.2,1.2,0.5,1.7c0.3,0.5,0.8,0.9,1.4,1.2c0.6,0.4,2.1,0.9,4.4,1.6c2,0.6,3.5,1.3,4.6,2c1,0.7,1.8,1.4,2.4,2.3
			C766.9,420,767.2,421.1,767.2,422.3z"/>
		<path fill="#88AF3F" d="M795.6,413.5c0,2.1-0.3,4.3-1,6.5c-0.6,2.3-1.5,4.2-2.7,5.8c-1.2,1.6-2.6,2.7-4.4,3.5s-3.7,1.2-5.9,1.2
			c-3.1,0-5.6-1-7.4-2.9s-2.7-4.5-2.7-7.8c0.1-3.3,0.7-6.2,1.8-8.8c1.1-2.5,2.7-4.5,4.6-5.8s4.4-2,7.3-2c3.3,0,5.9,0.9,7.7,2.6
			C794.7,407.8,795.6,410.3,795.6,413.5z M791.1,413.5c0-4.6-2-6.9-5.9-6.9c-2.1,0-3.9,0.6-5.2,1.7c-1.3,1.1-2.3,2.8-3,5.1
			c-0.7,2.3-1.1,4.5-1.1,6.6c0,2.4,0.5,4.2,1.5,5.5s2.5,1.9,4.4,1.9c1.6,0,3-0.3,3.9-0.8c1-0.6,1.9-1.4,2.6-2.6
			c0.7-1.2,1.4-2.7,1.8-4.5C790.8,417.4,791.1,415.5,791.1,413.5z"/>
		<path fill="#88AF3F" d="M797.9,430l6.9-35.9h4.3l-6.9,35.9H797.9z"/>
		<path fill="#88AF3F" d="M817.9,403.8l-3,15.6c-0.3,1.4-0.4,2.6-0.4,3.6c0,2.7,1.4,4,4.3,4c2,0,3.8-0.8,5.3-2.3
			c1.5-1.5,2.5-3.6,3.1-6.3l2.8-14.7h4.3l-4,20.6c-0.3,1.5-0.6,3.4-0.9,5.6h-4.1c0-0.2,0.1-0.8,0.3-1.9c0.2-1.1,0.3-1.9,0.4-2.6
			h-0.1c-1.3,1.9-2.6,3.1-4,3.9c-1.3,0.7-2.9,1.1-4.7,1.1c-2.4,0-4.1-0.6-5.3-1.8c-1.2-1.2-1.8-2.9-1.8-5.1c0-1,0.2-2.4,0.5-4
			l3-15.8H817.9z"/>
		<path fill="#88AF3F" d="M841.7,430.5c-1.4,0-2.4-0.4-3.2-1.2s-1.2-1.9-1.2-3.3c0-0.9,0.1-1.9,0.4-3.1l3-15.8h-3l0.6-3.2h3l2.5-5.9
			h2.9l-1.1,5.9h4.8l-0.6,3.2H845l-3,15.6c-0.2,1-0.3,1.7-0.3,2.3c0,1.4,0.7,2.1,2.1,2.1c0.7,0,1.5-0.1,2.4-0.3l-0.5,3.2
			C844.2,430.3,842.9,430.5,841.7,430.5z"/>
		<path fill="#88AF3F" d="M849.5,430l5-26.2h4.3l-5,26.2H849.5z M855.5,398.3l0.8-4.2h4.3l-0.8,4.2H855.5z"/>
		<path fill="#88AF3F" d="M885.2,413.5c0,2.1-0.3,4.3-1,6.5c-0.6,2.3-1.5,4.2-2.7,5.8c-1.2,1.6-2.6,2.7-4.4,3.5
			c-1.7,0.8-3.7,1.2-5.9,1.2c-3.1,0-5.6-1-7.4-2.9s-2.7-4.5-2.7-7.8c0.1-3.3,0.7-6.2,1.8-8.8c1.1-2.5,2.7-4.5,4.6-5.8s4.4-2,7.3-2
			c3.3,0,5.9,0.9,7.7,2.6C884.3,407.8,885.2,410.3,885.2,413.5z M880.7,413.5c0-4.6-2-6.9-5.9-6.9c-2.1,0-3.9,0.6-5.2,1.7
			c-1.3,1.1-2.3,2.8-3,5.1c-0.7,2.3-1.1,4.5-1.1,6.6c0,2.4,0.5,4.2,1.5,5.5c1,1.2,2.5,1.9,4.4,1.9c1.6,0,3-0.3,3.9-0.8
			c1-0.6,1.9-1.4,2.6-2.6c0.7-1.2,1.4-2.7,1.8-4.5C880.4,417.4,880.6,415.5,880.7,413.5z"/>
		<path fill="#88AF3F" d="M903.8,430l3-15.6c0.3-1.4,0.4-2.6,0.4-3.6c0-2.7-1.4-4-4.3-4c-2,0-3.8,0.8-5.3,2.3
			c-1.5,1.5-2.5,3.6-3.1,6.3l-2.8,14.7h-4.3l4-20.6c0.3-1.5,0.6-3.4,0.9-5.6h4.1c0,0.2-0.1,0.8-0.3,1.9c-0.2,1.1-0.3,1.9-0.4,2.6
			h0.1c1.3-1.9,2.6-3.1,4-3.9c1.3-0.7,2.9-1.1,4.7-1.1c2.4,0,4.1,0.6,5.3,1.8c1.2,1.2,1.8,2.9,1.8,5.1c0,1-0.2,2.4-0.5,4l-3,15.8
			H903.8z"/>
	</g>
</g>
</svg>
