<svg xmlns="http://www.w3.org/2000/svg" width="186" height="60">
    <path fill="#FFF" d="M0 60V0h186v60H0zm175.27-14.74l.009.004a9.556 9.556 0 004.421-1.148l-.054-3.674a3.726 3.726 0 01-1.034.162c-1.146 0-1.689-.488-1.689-1.893V28.119c0-5.565-4.463-8.267-9.745-8.267-4.03 0-6.207.5-10.506 2.23l-1.09 6.321 5.607.596.909-3.458c1.143-.593 2.286-.702 3.757-.702 3.975 0 4.03 2.971 4.03 5.457v.81a32.355 32.355 0 00-4.03-.217c-5.606 0-11.431 1.403-11.431 7.401 0 5.077 4.033 6.97 7.565 6.97 3.972 0 6.476-2.377 7.892-4.863.328 2.97 2.123 4.863 5.388 4.863zm-36.58-.538h6.923l10.61-37.16h-6.914l-10.619 37.16zm-14.262 0h6.922l10.616-37.16h-6.914l-10.624 37.16zm-17.134 0l1.509-8.533-5.552-.538-1.143 3.783h-7.934l13.614-15.407-.542-3.675H85.668l-.87 8.539 5.064.538 1.088-3.783h7.674L85.138 41.047l.707 3.675h21.449zm-39.084.538v.004c7.838 0 13.499-4.918 13.492-12.702 0-6.808-4.309-12.698-13.12-12.698-8.81 0-13.165 5.89-13.165 13.024 0 7.78 5.228 12.372 12.793 12.372zm-15.621-.538l-.003-5.288H49.32V28.298c0-5.782-4.03-8.43-8.438-8.43-3.866 0-6.64 2.001-8.002 5.242-1.197-3.566-4.47-5.243-8.001-5.243-3.426 0-5.986 1.568-7.456 4.16v-3.672H6.868v5.294H10.4v13.785H7.135v5.294h14.97v-5.294h-4.67v-8.49c0-3.405 1.362-5.782 4.737-5.782 2.777 0 4.19 1.622 4.19 5.835v13.731h10.275v-5.294h-3.25v-8.49c0-3.405 1.362-5.782 4.737-5.782 2.774 0 4.19 1.622 4.19 5.835v13.725h10.275zm60.635-15.618h7.35v-8.75h-7.35v8.75zm0 15.618h7.35V35.97h-7.35v8.752zM68.267 24.923c3.398 0 6.123 2.226 6.133 7.168 0 4.67-2.45 7.601-6.18 7.601-3.907 0-5.91-3.257-5.91-7.491 0-4.62 2.282-7.278 5.957-7.278zm93.553 12.24c0 1.411.775 2.53 2.941 2.53 2.55 0 5.266-1.607 5.429-5.252a29.98 29.98 0 00-3.595-.287c-2.559-.003-4.775.628-4.775 3.008z"/>
</svg>
