<svg width="255" height="94" fill="none" xmlns="http://www.w3.org/2000/svg">
  <path d="M30.131 33.773v-7.046h34.214v7.046H50.683v32.74h-6.887v-32.74H30.13zm72.376 17.473v-24.52h6.939v24.52c0 3.802-.207 6.759-2.874 10.206-3.863 5.072-11.122 5.832-15.107 5.832-9.507 0-13.68-4.643-15.03-6.64-2.11-3.111-2.282-6.097-2.282-9.398v-24.52h6.99v24.52c0 2.593.14 4.57 1.946 6.376 1.76 1.76 4.785 2.614 9.25 2.614 3.627 0 6.051-.591 7.63-1.862 1.707-1.375 2.538-3.706 2.538-7.128zm41.597-6.214c4.795 0 5.801-3.518 5.801-5.861 0-3.136-1.951-5.45-5.801-5.45h-16.383v11.31h16.383zm12.793-5.553c0 5.658-3.077 10.492-8.483 12.129l8.437 14.904h-7.967l-8.034-14.434h-13.129v14.434h-7.042V26.727h23.425c7.772 0 12.793 5.444 12.793 12.752zm39.128 16.836c2.724-2.622 4.222-6.158 4.222-9.953 0-3.8-1.512-7.29-4.256-9.826-2.683-2.477-6.278-3.842-10.123-3.842-3.972 0-7.612 1.398-10.248 3.935-2.665 2.566-4.132 6.15-4.132 10.093 0 3.721 1.539 7.18 4.335 9.74 2.693 2.465 6.372 3.877 10.095 3.877 3.822 0 7.411-1.43 10.107-4.024zm-10.107-30.72c5.708 0 11.057 2.162 15.061 6.085 4.035 3.955 6.258 9.279 6.258 14.99 0 11.452-9.585 20.767-21.369 20.767-11.956 0-21.321-9.392-21.321-21.382 0-11.281 9.587-20.46 21.371-20.46zm32.139 57.57l28.269-36.648-28.269-36.649-.027-.036c-.214-.275-.5-.61-.753-.854-1.412-1.363-3.309-2.109-5.348-2.109l-.048.002H6.867v79.292h205.062c2.039 0 3.936-.746 5.348-2.107.253-.245.539-.579.753-.856l.027-.035zm6.954-75.526L255 46.517 223.455 87.41c-.012.02-.024.038-.04.057a14.095 14.095 0 01-1.379 1.54c-2.696 2.595-6.286 4.027-10.107 4.027-.017 0-.034-.004-.051-.004v.004H0V0h211.878v.002l.051-.002c3.821 0 7.411 1.43 10.107 4.025.501.484.963 1 1.379 1.542.016.018.028.037.04.056l1.556 2.016z" fill="#fff"/>
</svg>
